<?xml version="1.0" encoding="utf-8"?>
<!-- Generator: Adobe Illustrator 25.2.0, SVG Export Plug-In . SVG Version: 6.00 Build 0)  -->
<svg version="1.1" id="Layer_1" xmlns="http://www.w3.org/2000/svg" xmlns:xlink="http://www.w3.org/1999/xlink" x="0px" y="0px"
	 viewBox="0 0 400 400" style="enable-background:new 0 0 400 400;" xml:space="preserve">
<style type="text/css">
	.st0{opacity:0.8;}
	.st1{opacity:0;}
	.st2{fill:#F0F0F0;}
	.st3{fill:none;stroke:#303030;stroke-width:3.5;stroke-miterlimit:10;}
	.st4{fill:none;stroke:#303030;stroke-width:6;stroke-miterlimit:10;}
	.st5{fill:none;stroke:#303030;stroke-width:15;stroke-miterlimit:10;}
	.st6{fill:#B8322E;stroke:#E0211B;stroke-width:15;stroke-miterlimit:10;}
	.st7{fill:#303030;}
</style>
<g id="Coolant-gauge" class="st0">
	<g class="st1">
		<ellipse class="st2" cx="200.4" cy="200.3" rx="199.6" ry="200.3"/>
	</g>
	<g id="Coolant-markings-lines">
		<line class="st3" x1="-0.6" y1="200.3" x2="26.4" y2="200.3"/>
		<line class="st3" x1="3.1" y1="161.8" x2="29.6" y2="167"/>
		<line class="st4" x1="14.1" y1="124.7" x2="39" y2="134.9"/>
		<line class="st4" x1="31.9" y1="90.5" x2="54.4" y2="105.2"/>
		<line class="st5" x1="56.8" y1="61.2" x2="74.2" y2="78"/>
		<line class="st3" x1="3.8" y1="242.2" x2="30.2" y2="236.6"/>
		<line class="st3" x1="16.8" y1="282.3" x2="41.4" y2="271.3"/>
		<line class="st3" x1="37.8" y1="318.8" x2="59.6" y2="302.9"/>
		<line class="st6" x1="66.8" y1="349.1" x2="83" y2="331.1"/>
		<g>
			<path class="st7" d="M65.2,213.7c2.1,0,2.7-1.1,3.9-1.8c-0.2-0.7-0.3-1.5-0.3-2.2c0-0.2,0-0.3,0-0.5c-1.1,0.6-1.7,1.6-3.6,1.6
				c-2.9,0-2.9-2.2-5.8-2.2c-2.9,0-2.9,2.2-5.8,2.2v2.9c2.9,0,2.9-2.2,5.8-2.2C62.3,211.6,62.3,213.7,65.2,213.7L65.2,213.7z
				 M77.2,214.5c2.6,0,4.7-2.1,4.7-4.7c0-1.7-0.9-3.1-2.2-4v-2.2h8c0.8,0,1.4-0.7,1.4-1.5c0-0.8-0.6-1.5-1.4-1.5h-8v-4.4h8
				c0.8,0,1.4-0.7,1.4-1.5c0-0.8-0.6-1.5-1.4-1.5h-8V189h8c0.8,0,1.4-0.6,1.4-1.5c0-0.8-0.6-1.5-1.4-1.5h-8v-4.4h0
				c-0.2-1.2-1.2-2.2-2.5-2.2s-2.3,0.9-2.5,2.2h0v24c-1.3,0.8-2.2,2.3-2.2,4C72.5,212.3,74.6,214.5,77.2,214.5L77.2,214.5z
				 M89.1,218.1c-2.9,0-2.9-2.2-5.8-2.2c-2.8,0-2.9,2-6.2,2.2c-3.3-0.1-3.4-2.2-6.2-2.2c-2.9,0-2.9,2.2-5.8,2.2
				c-2.9,0-2.9-2.2-5.8-2.2c-1.4,0-2.2,0.5-2.9,1.1v2.9c0.7-0.5,1.5-1.1,2.9-1.1c2.9,0,2.9,2.2,5.8,2.2c2.9,0,2.9-2.2,5.8-2.2
				c2.7,0,2.9,1.9,5.8,2.1v0c0.1,0,0.2,0,0.4,0c0.1,0,0.2,0,0.4,0v0c2.9-0.3,3.1-2.1,5.8-2.1c2.9,0,2.9,2.2,5.8,2.2
				c2.9,0,2.9-2.2,5.8-2.2c1.5,0,2.2,0.5,2.9,1.1V217c-0.7-0.5-1.4-1.1-2.9-1.1C92,215.9,92,218.1,89.1,218.1z M94.9,208.6
				c-2.9,0-2.9,2.2-5.8,2.2c-1.9,0-2.6-1-3.6-1.6c0,0.2,0,0.3,0,0.5c0,0.8-0.1,1.5-0.3,2.2c1.3,0.6,1.8,1.8,3.9,1.8
				c2.9,0,2.9-2.2,5.8-2.2c2.9,0,2.9,2.2,5.8,2.2v-2.9C97.8,210.8,97.8,208.6,94.9,208.6L94.9,208.6z"/>
		</g>
	</g>
</g>
</svg>
