<svg xmlns="http://www.w3.org/2000/svg" viewBox="0 0 600 600"><defs><style>.cls-1{fill:#97a4b0;}.cls-2{fill:#f0f0f0;}.cls-3,.cls-4{fill:none;}.cls-3,.cls-4,.cls-5{stroke:#f85c1d;stroke-miterlimit:10;}.cls-3,.cls-5{stroke-width:4px;}.cls-4{stroke-width:2px;}.cls-5,.cls-6{fill:#f85c1d;}.cls-7{font-size:28px;font-family:RenaultLife, Renault Life;}</style></defs><g id="Layer_2" data-name="Layer 2"><g id="Board"><g id="Speedometer"><g id="Gauge"><g id="Main_Gauge" data-name="Main Gauge"><path class="cls-1" d="M600,300a299.06,299.06,0,0,1-88.44,212.69L407.3,408.44a152.56,152.56,0,1,0-215.37-.75L87.67,511.94A299.12,299.12,0,0,1,0,300C0,134.32,134.32,0,300,0S600,134.32,600,300Z"/></g><path class="cls-2" d="M452.57,300A152.57,152.57,0,1,1,300,147.43,152,152,0,0,1,452.57,300Z"/><path class="cls-2" d="M511.56,512.69a300,300,0,0,1-423.89-.75L191.93,407.69a152.53,152.53,0,0,0,215.37.75Z"/><g id="Lines"><line class="cls-3" x1="299" y1="30" x2="299" y2="48"/><line class="cls-4" x1="345.89" y1="34.1" x2="342.76" y2="51.83"/><line class="cls-3" x1="391.35" y1="46.28" x2="385.19" y2="63.2"/><line class="cls-4" x1="434" y1="66.17" x2="425" y2="81.76"/><line class="cls-3" x1="472.55" y1="93.17" x2="460.98" y2="106.96"/><line class="cls-4" x1="505.83" y1="126.45" x2="492.04" y2="138.02"/><line class="cls-3" x1="532.83" y1="165" x2="517.24" y2="174"/><line class="cls-4" x1="552.72" y1="207.65" x2="535.8" y2="213.81"/><line class="cls-3" x1="564.9" y1="253.11" x2="547.17" y2="256.24"/><line class="cls-4" x1="569" y1="300" x2="551" y2="300"/><line class="cls-3" x1="564.9" y1="346.89" x2="547.17" y2="343.76"/><line class="cls-4" x1="552.72" y1="392.35" x2="535.8" y2="386.19"/><line class="cls-3" x1="532.83" y1="435" x2="517.24" y2="426"/><line class="cls-3" x1="66.17" y1="435" x2="81.76" y2="426"/><line class="cls-4" x1="45.28" y1="392.35" x2="62.2" y2="386.19"/><line class="cls-3" x1="33.1" y1="346.89" x2="50.83" y2="343.76"/><line class="cls-4" x1="29" y1="300" x2="47" y2="300"/><line class="cls-3" x1="33.1" y1="253.11" x2="50.83" y2="256.24"/><line class="cls-4" x1="45.28" y1="207.65" x2="62.2" y2="213.81"/><line class="cls-3" x1="65.17" y1="165" x2="80.76" y2="174"/><line class="cls-4" x1="92.17" y1="126.45" x2="105.96" y2="138.02"/><line class="cls-3" x1="125.45" y1="93.17" x2="137.02" y2="106.96"/><line class="cls-4" x1="164" y1="66.17" x2="173" y2="81.76"/><line class="cls-3" x1="206.65" y1="46.28" x2="212.81" y2="63.2"/><line class="cls-4" x1="252.11" y1="34.1" x2="255.24" y2="51.83"/><circle class="cls-5" cx="57.44" cy="412.61" r="1.5"/><circle class="cls-5" cx="41.54" cy="369" r="1.5"/><circle class="cls-5" cx="33.49" cy="323.22" r="1.5"/><circle class="cls-5" cx="33.5" cy="276.71" r="1.5"/><circle class="cls-5" cx="41.58" cy="230.95" r="1.5"/><circle class="cls-5" cx="57.43" cy="187.39" r="1.5"/><circle class="cls-5" cx="80.76" cy="147.02" r="1.5"/><circle class="cls-5" cx="110.52" cy="111.54" r="1.5"/><circle class="cls-5" cx="146.17" cy="81.66" r="1.5"/><circle class="cls-5" cx="186.31" cy="58.49" r="1.5"/><circle class="cls-5" cx="229.95" cy="42.6" r="1.5"/><circle class="cls-5" cx="275.79" cy="34.52" r="1.5"/><circle class="cls-5" cx="322.33" cy="34.52" r="1.5"/><circle class="cls-5" cx="367.9" cy="42.58" r="1.5"/><circle class="cls-5" cx="411.61" cy="58.44" r="1.5"/><circle class="cls-5" cx="451.86" cy="81.7" r="1.5"/><circle class="cls-5" cx="487.41" cy="111.49" r="1.5"/><circle class="cls-5" cx="517.24" cy="147.04" r="1.5"/><circle class="cls-5" cx="540.66" cy="187.39" r="1.5"/><circle class="cls-5" cx="556.41" cy="230.95" r="1.5"/><circle class="cls-5" cx="564.49" cy="276.78" r="1.5"/><circle class="cls-5" cx="564.5" cy="323.29" r="1.5"/><circle class="cls-5" cx="556.42" cy="369.05" r="1.5"/><circle class="cls-5" cx="540.56" cy="412.61" r="1.5"/></g><g id="Numbers"><g id="_10" data-name="10"><path class="cls-6" d="M81.25,395l-8.46,3.15.85-4.82,9.68-3.6h4.59L82.6,420H76.84Z"/><path class="cls-6" d="M93.76,410.86a37.44,37.44,0,0,1,.94-8.66,22.63,22.63,0,0,1,2.77-6.89,13.83,13.83,0,0,1,4.48-4.52,11.34,11.34,0,0,1,6-1.62q5.13,0,7.44,2.3t2.32,7.33a36.87,36.87,0,0,1-1,8.66,23.43,23.43,0,0,1-2.79,6.89,13.87,13.87,0,0,1-4.46,4.52,11.22,11.22,0,0,1-6,1.62q-5.08,0-7.42-2.29T93.76,410.86Zm5.53-.45a6.15,6.15,0,0,0,1.11,4.1,4.45,4.45,0,0,0,3.53,1.26,5.15,5.15,0,0,0,3.28-1.24,10.33,10.33,0,0,0,2.64-3.44,21.7,21.7,0,0,0,1.73-5.25,32.41,32.41,0,0,0,.63-6.59,6.24,6.24,0,0,0-1.08-4.09,4.39,4.39,0,0,0-3.51-1.26,5.2,5.2,0,0,0-3.33,1.23,10.22,10.22,0,0,0-2.63,3.45,21.18,21.18,0,0,0-1.74,5.24A32.41,32.41,0,0,0,99.29,410.41Z"/></g><g id="_30" data-name="30"><path class="cls-6" d="M75.26,326.11l-7.06,6.7a7.43,7.43,0,0,1,4.43,1.73,4.92,4.92,0,0,1,1.48,3.74q0,9-11.27,9a20.06,20.06,0,0,1-3.42-.29,18.89,18.89,0,0,1-3.17-.83l.61-3.63a17.73,17.73,0,0,0,6,1.15,8.4,8.4,0,0,0,5-1.19,4.31,4.31,0,0,0,1.61-3.71,2.37,2.37,0,0,0-1.32-2.23,9.12,9.12,0,0,0-4.19-.72H62.48l.54-2.95,7-6.73H60l.61-3.5H75.83Z"/><path class="cls-6" d="M78,339.61a30.28,30.28,0,0,1,.76-6.93,18,18,0,0,1,2.21-5.5,11.06,11.06,0,0,1,3.58-3.62,9.05,9.05,0,0,1,4.83-1.3c2.74,0,4.72.61,6,1.84s1.85,3.18,1.85,5.87a29.72,29.72,0,0,1-.77,6.93,18.31,18.31,0,0,1-2.24,5.5A11,11,0,0,1,90.61,346a8.91,8.91,0,0,1-4.81,1.3q-4.06,0-5.93-1.84T78,339.61Zm4.43-.36a4.91,4.91,0,0,0,.88,3.28,3.59,3.59,0,0,0,2.83,1,4.11,4.11,0,0,0,2.63-1,8.25,8.25,0,0,0,2.1-2.76,17.15,17.15,0,0,0,1.39-4.19,26.42,26.42,0,0,0,.5-5.27,5,5,0,0,0-.86-3.28,3.52,3.52,0,0,0-2.81-1,4.13,4.13,0,0,0-2.66,1,8.14,8.14,0,0,0-2.11,2.76A17.15,17.15,0,0,0,82.92,334,26.42,26.42,0,0,0,82.42,339.25Z"/></g><g id="_50" data-name="50"><path class="cls-6" d="M75.44,250.84h-13L61,258.49l1.29-.07,1.28,0q5.17,0,7.81,1.89a6.38,6.38,0,0,1,2.63,5.53q0,11.43-13.95,11.43a23.71,23.71,0,0,1-4.32-.38,29.23,29.23,0,0,1-3.92-1l.77-4.55a26.84,26.84,0,0,0,3.76,1.06,18,18,0,0,0,3.71.38q4.18,0,6.14-1.5a5.61,5.61,0,0,0,2-4.75q0-3.92-7.34-3.92c-.93,0-1.87,0-2.83.05s-2,.09-3,.18l2.84-16.34H76.21Z"/><path class="cls-6" d="M78.41,267.62a37.49,37.49,0,0,1,1-8.66,22.57,22.57,0,0,1,2.77-6.88,13.64,13.64,0,0,1,4.47-4.53,11.34,11.34,0,0,1,6-1.62c3.42,0,5.91.77,7.45,2.3s2.32,4,2.32,7.33a36.48,36.48,0,0,1-1,8.67,22.84,22.84,0,0,1-2.79,6.88,13.75,13.75,0,0,1-4.45,4.52,11.25,11.25,0,0,1-6,1.62q-5.09,0-7.43-2.29T78.41,267.62Zm5.54-.45a6.21,6.21,0,0,0,1.1,4.1,4.47,4.47,0,0,0,3.53,1.26,5.12,5.12,0,0,0,3.29-1.24,10.21,10.21,0,0,0,2.63-3.44,21.33,21.33,0,0,0,1.73-5.24,32.58,32.58,0,0,0,.63-6.6,6.24,6.24,0,0,0-1.08-4.09,4.39,4.39,0,0,0-3.51-1.26,5.16,5.16,0,0,0-3.33,1.24,10.08,10.08,0,0,0-2.63,3.44,21.76,21.76,0,0,0-1.73,5.24A32.48,32.48,0,0,0,84,267.17Z"/></g><g id="_70" data-name="70"><path class="cls-6" d="M96.9,183.6,84.23,204.26h-5L91.9,183.74H80l.61-3.67H97.51Z"/><path class="cls-6" d="M98.13,197a30.17,30.17,0,0,1,.75-6.93,18.21,18.21,0,0,1,2.22-5.51,11,11,0,0,1,3.58-3.62,9.08,9.08,0,0,1,4.82-1.29c2.74,0,4.72.61,6,1.83s1.85,3.18,1.85,5.87a29.07,29.07,0,0,1-.77,6.93,18.63,18.63,0,0,1-2.23,5.51,11,11,0,0,1-3.57,3.62,9,9,0,0,1-4.8,1.29q-4.06,0-5.94-1.83C98.75,201.63,98.13,199.68,98.13,197Zm4.42-.36a5,5,0,0,0,.89,3.28,3.56,3.56,0,0,0,2.82,1,4.11,4.11,0,0,0,2.63-1,8.09,8.09,0,0,0,2.11-2.75,17.31,17.31,0,0,0,1.38-4.19,25.71,25.71,0,0,0,.51-5.28,5,5,0,0,0-.87-3.27,3.48,3.48,0,0,0-2.81-1,4.15,4.15,0,0,0-2.66,1,8.19,8.19,0,0,0-2.11,2.75,17.39,17.39,0,0,0-1.38,4.2A25.61,25.61,0,0,0,102.55,196.63Z"/></g><g id="_90" data-name="90"><path class="cls-6" d="M148.27,121.55a35.54,35.54,0,0,1-1.12,9.34,20.61,20.61,0,0,1-3.24,7,14.23,14.23,0,0,1-5.16,4.34,15.14,15.14,0,0,1-6.86,1.51,24.27,24.27,0,0,1-3.94-.32,23.87,23.87,0,0,1-3.66-.9l.76-4.45a25.8,25.8,0,0,0,3.44.85,20.85,20.85,0,0,0,3.63.32,9.12,9.12,0,0,0,6.39-2.34,11.94,11.94,0,0,0,3.42-6.8,9.61,9.61,0,0,1-7.11,2.61c-2.85,0-5-.66-6.57-2a7,7,0,0,1-2.3-5.56q0-6,3.26-9.38t9.16-3.35q4.95,0,7.43,2.34T148.27,121.55Zm-5.31.18a4.44,4.44,0,0,0-5-4.86,6.17,6.17,0,0,0-4.73,1.87,7.34,7.34,0,0,0-1.75,5.24q0,4.27,4.77,4.27a6.8,6.8,0,0,0,5-1.71A6.4,6.4,0,0,0,143,121.73Z"/><path class="cls-6" d="M150.66,134.06a37.44,37.44,0,0,1,.94-8.66,22.63,22.63,0,0,1,2.77-6.89,13.73,13.73,0,0,1,4.48-4.52,11.34,11.34,0,0,1,6-1.62q5.13,0,7.44,2.29t2.32,7.34a36.34,36.34,0,0,1-1,8.66,22.91,22.91,0,0,1-2.79,6.89,13.84,13.84,0,0,1-4.45,4.52,11.25,11.25,0,0,1-6,1.62q-5.08,0-7.42-2.3T150.66,134.06Zm5.53-.45a6.18,6.18,0,0,0,1.1,4.09,4.49,4.49,0,0,0,3.54,1.26,5.13,5.13,0,0,0,3.28-1.23,10.22,10.22,0,0,0,2.63-3.45,21.18,21.18,0,0,0,1.74-5.24,32.41,32.41,0,0,0,.63-6.59,6.27,6.27,0,0,0-1.08-4.1,4.39,4.39,0,0,0-3.51-1.26,5.22,5.22,0,0,0-3.33,1.24,10.33,10.33,0,0,0-2.64,3.44,21.7,21.7,0,0,0-1.73,5.25A32.41,32.41,0,0,0,156.19,133.61Z"/></g><g id="_110" data-name="110"><path class="cls-6" d="M191.87,73.19l-6.76,2.52.68-3.85L193.53,69h3.67L193,93.17h-4.6Z"/><path class="cls-6" d="M212.61,73.19l-6.77,2.52.69-3.85L214.27,69h3.67l-4.25,24.19h-4.61Z"/><path class="cls-6" d="M222.62,85.9a30.17,30.17,0,0,1,.75-6.93,18.36,18.36,0,0,1,2.22-5.51,10.88,10.88,0,0,1,3.58-3.62,9.11,9.11,0,0,1,4.82-1.3c2.74,0,4.73.62,6,1.84s1.86,3.18,1.86,5.87a29.18,29.18,0,0,1-.78,6.93,18.48,18.48,0,0,1-2.23,5.51,11.07,11.07,0,0,1-3.56,3.61,9,9,0,0,1-4.81,1.3q-4.06,0-5.94-1.84C223.24,90.54,222.62,88.58,222.62,85.9Zm4.43-.36a4.9,4.9,0,0,0,.88,3.27,3.58,3.58,0,0,0,2.82,1,4.09,4.09,0,0,0,2.63-1,8.19,8.19,0,0,0,2.11-2.75,17,17,0,0,0,1.38-4.2,25.68,25.68,0,0,0,.51-5.27,5,5,0,0,0-.87-3.28,3.5,3.5,0,0,0-2.8-1,4.17,4.17,0,0,0-2.67,1,8.12,8.12,0,0,0-2.1,2.76,17.15,17.15,0,0,0-1.39,4.19A25.73,25.73,0,0,0,227.05,85.54Z"/></g><g id="_130" data-name="130"><path class="cls-6" d="M273.11,58l-8.46,3.15.85-4.81,9.68-3.6h4.59l-5.31,30.24H268.7Z"/><path class="cls-6" d="M308.12,57l-8.82,8.37a9.29,9.29,0,0,1,5.53,2.16,6.16,6.16,0,0,1,1.85,4.68q0,11.3-14.09,11.3a24.85,24.85,0,0,1-4.27-.36,24,24,0,0,1-4-1l.76-4.54A21.9,21.9,0,0,0,292.59,79c2.83,0,4.9-.5,6.24-1.49a5.39,5.39,0,0,0,2-4.63,3,3,0,0,0-1.64-2.79,11.48,11.48,0,0,0-5.24-.9h-1.8l.67-3.69,8.82-8.42H289.08l.77-4.36h19Z"/><path class="cls-6" d="M311.54,73.84a37.59,37.59,0,0,1,.94-8.67,22.83,22.83,0,0,1,2.77-6.88,13.73,13.73,0,0,1,4.48-4.52,11.34,11.34,0,0,1,6-1.62q5.13,0,7.45,2.29t2.31,7.34a36.93,36.93,0,0,1-1,8.66,23.37,23.37,0,0,1-2.79,6.88,13.81,13.81,0,0,1-4.46,4.53,11.22,11.22,0,0,1-6,1.62q-5.08,0-7.42-2.3T311.54,73.84Zm5.53-.45a6.12,6.12,0,0,0,1.11,4.09,4.45,4.45,0,0,0,3.53,1.26A5.09,5.09,0,0,0,325,77.5a10.22,10.22,0,0,0,2.64-3.44,21.76,21.76,0,0,0,1.73-5.24,32.48,32.48,0,0,0,.63-6.59,6.27,6.27,0,0,0-1.08-4.1,4.39,4.39,0,0,0-3.51-1.26,5.22,5.22,0,0,0-3.33,1.24,10.18,10.18,0,0,0-2.63,3.44,21.32,21.32,0,0,0-1.74,5.24A32.58,32.58,0,0,0,317.07,73.39Z"/></g><g id="_150" data-name="150"><path class="cls-6" d="M361.61,73.19l-6.77,2.52.69-3.85L363.27,69h3.67l-4.25,24.19h-4.61Z"/><path class="cls-6" d="M390.3,72.47H379.86l-1.08,6.12c.34,0,.68,0,1-.06h1c2.76,0,4.85.5,6.25,1.51a5.12,5.12,0,0,1,2.11,4.43q0,9.14-11.16,9.14a18.1,18.1,0,0,1-3.46-.31,22.79,22.79,0,0,1-3.13-.81l.61-3.63a21.52,21.52,0,0,0,3,.84,14.27,14.27,0,0,0,3,.31,8,8,0,0,0,4.91-1.21A4.49,4.49,0,0,0,384.51,85q0-3.14-5.87-3.14c-.75,0-1.5,0-2.27,0S374.8,82,374,82L376.23,69h14.68Z"/><path class="cls-6" d="M393,85.9a29.61,29.61,0,0,1,.76-6.93A18.1,18.1,0,0,1,396,73.46a11,11,0,0,1,3.58-3.62,9.15,9.15,0,0,1,4.83-1.3c2.73,0,4.72.62,6,1.84s1.85,3.18,1.85,5.87a29.72,29.72,0,0,1-.77,6.93,18.49,18.49,0,0,1-2.24,5.51,11.07,11.07,0,0,1-3.56,3.61,8.94,8.94,0,0,1-4.81,1.3q-4.06,0-5.94-1.84C393.63,90.54,393,88.58,393,85.9Zm4.43-.36a4.9,4.9,0,0,0,.88,3.27,3.59,3.59,0,0,0,2.83,1,4.13,4.13,0,0,0,2.63-1,8.3,8.3,0,0,0,2.1-2.75,17.38,17.38,0,0,0,1.39-4.2,26.42,26.42,0,0,0,.5-5.27,5.05,5.05,0,0,0-.86-3.28,3.52,3.52,0,0,0-2.81-1,4.13,4.13,0,0,0-2.66,1,8.14,8.14,0,0,0-2.11,2.76,17.15,17.15,0,0,0-1.39,4.19A26.45,26.45,0,0,0,397.43,85.54Z"/></g><g id="_170" data-name="170"><path class="cls-6" d="M415.89,118.71l-8.46,3.15.85-4.81,9.68-3.6h4.59l-5.31,30.24h-5.76Z"/><path class="cls-6" d="M452.79,117.86,437,143.69h-6.26L446.53,118H431.64l.76-4.59h21.15Z"/><path class="cls-6" d="M454.32,134.6a37.44,37.44,0,0,1,.94-8.66,22.63,22.63,0,0,1,2.77-6.89,13.83,13.83,0,0,1,4.48-4.52,11.34,11.34,0,0,1,6-1.62q5.13,0,7.44,2.29t2.32,7.34a36.34,36.34,0,0,1-1,8.66,22.91,22.91,0,0,1-2.79,6.89,13.84,13.84,0,0,1-4.45,4.52,11.25,11.25,0,0,1-6,1.62q-5.08,0-7.42-2.3T454.32,134.6Zm5.53-.45a6.12,6.12,0,0,0,1.11,4.09,4.45,4.45,0,0,0,3.53,1.26,5.13,5.13,0,0,0,3.28-1.23,10.37,10.37,0,0,0,2.64-3.45,21.61,21.61,0,0,0,1.73-5.24,32.41,32.41,0,0,0,.63-6.59,6.27,6.27,0,0,0-1.08-4.1,4.39,4.39,0,0,0-3.51-1.26,5.22,5.22,0,0,0-3.33,1.24,10.33,10.33,0,0,0-2.64,3.44,21.7,21.7,0,0,0-1.73,5.25A32.41,32.41,0,0,0,459.85,134.15Z"/></g><g id="_190" data-name="190"><path class="cls-6" d="M473,184.71l-6.77,2.52.69-3.85,7.74-2.88h3.67l-4.25,24.19h-4.61Z"/><path class="cls-6" d="M502.2,187.41a28.32,28.32,0,0,1-.9,7.47,16.5,16.5,0,0,1-2.59,5.57,11.42,11.42,0,0,1-4.12,3.47,12.24,12.24,0,0,1-5.49,1.21,19.13,19.13,0,0,1-3.15-.26,17.54,17.54,0,0,1-2.94-.72l.62-3.56a18.73,18.73,0,0,0,2.75.68,16.38,16.38,0,0,0,2.9.26,7.29,7.29,0,0,0,5.11-1.88,9.53,9.53,0,0,0,2.74-5.43,9.07,9.07,0,0,1-10.95.48,5.58,5.58,0,0,1-1.83-4.44q0-4.83,2.61-7.51a9.73,9.73,0,0,1,7.32-2.68q4,0,5.94,1.87A7.17,7.17,0,0,1,502.2,187.41Zm-4.25.15a3.55,3.55,0,0,0-4-3.89,4.94,4.94,0,0,0-3.78,1.49,5.89,5.89,0,0,0-1.41,4.2c0,2.28,1.28,3.42,3.82,3.42a5.46,5.46,0,0,0,4-1.37A5.12,5.12,0,0,0,498,187.56Z"/><path class="cls-6" d="M504.43,197.42a30.28,30.28,0,0,1,.76-6.93A18.2,18.2,0,0,1,507.4,185a11.06,11.06,0,0,1,3.59-3.61,9,9,0,0,1,4.82-1.3c2.74,0,4.72.61,6,1.84s1.85,3.18,1.85,5.86a29.6,29.6,0,0,1-.77,6.93,18.63,18.63,0,0,1-2.23,5.51,11,11,0,0,1-3.57,3.62,9,9,0,0,1-4.8,1.3c-2.72,0-4.7-.62-5.94-1.84S504.43,200.11,504.43,197.42Zm4.43-.36a5,5,0,0,0,.88,3.28,3.59,3.59,0,0,0,2.83,1,4.11,4.11,0,0,0,2.63-1,8.25,8.25,0,0,0,2.1-2.76,17.15,17.15,0,0,0,1.39-4.19,25.73,25.73,0,0,0,.5-5.28,5,5,0,0,0-.86-3.27,3.52,3.52,0,0,0-2.81-1,4.13,4.13,0,0,0-2.66,1,8.19,8.19,0,0,0-2.11,2.75,17,17,0,0,0-1.38,4.2A25.68,25.68,0,0,0,508.86,197.06Z"/></g><g id="_210" data-name="210"><path class="cls-6" d="M467.76,273l13-10.49a17.94,17.94,0,0,0,3.62-3.75,6.33,6.33,0,0,0,1.15-3.54q0-4-5.49-4a32.46,32.46,0,0,0-7.79,1.08l.81-4.68a26.68,26.68,0,0,1,4.26-.88,37.47,37.47,0,0,1,4.29-.25q5,0,7.43,1.74a6.18,6.18,0,0,1,2.38,5.37q0,6.3-6,11.21l-9.63,7.87h12.65l-.81,4.59H467Z"/><path class="cls-6" d="M507.76,252.28l-8.46,3.15.86-4.82,9.67-3.6h4.59l-5.31,30.24h-5.76Z"/><path class="cls-6" d="M520.27,268.16a37.49,37.49,0,0,1,1-8.66,22.71,22.71,0,0,1,2.76-6.88,13.77,13.77,0,0,1,4.48-4.53,11.34,11.34,0,0,1,6-1.62q5.13,0,7.45,2.3c1.54,1.53,2.32,4,2.32,7.33a37,37,0,0,1-1,8.67,23.48,23.48,0,0,1-2.79,6.88,13.87,13.87,0,0,1-4.46,4.52,11.19,11.19,0,0,1-6,1.62q-5.09,0-7.43-2.29T520.27,268.16Zm5.54-.45a6.15,6.15,0,0,0,1.1,4.1,4.45,4.45,0,0,0,3.53,1.26,5.12,5.12,0,0,0,3.29-1.24,10.21,10.21,0,0,0,2.63-3.44,21.76,21.76,0,0,0,1.73-5.24,32.58,32.58,0,0,0,.63-6.6,6.24,6.24,0,0,0-1.08-4.09,4.39,4.39,0,0,0-3.51-1.26,5.16,5.16,0,0,0-3.33,1.24,10.08,10.08,0,0,0-2.63,3.44,21.19,21.19,0,0,0-1.73,5.24A32.48,32.48,0,0,0,525.81,267.71Z"/></g><g id="_230" data-name="230"><path class="cls-6" d="M488.2,337.24l10.37-8.39a14.35,14.35,0,0,0,2.89-3,5,5,0,0,0,.92-2.83c0-2.14-1.46-3.2-4.39-3.2a25.76,25.76,0,0,0-6.23.86l.65-3.74a21.46,21.46,0,0,1,3.4-.71,29.74,29.74,0,0,1,3.44-.19q4,0,5.94,1.38a5,5,0,0,1,1.91,4.3q0,5-4.83,9l-7.7,6.3h10.12l-.65,3.67H487.59Z"/><path class="cls-6" d="M527.8,319.89l-7.06,6.69a7.5,7.5,0,0,1,4.43,1.73,5,5,0,0,1,1.48,3.75q0,9-11.27,9a19.09,19.09,0,0,1-3.42-.29,18.88,18.88,0,0,1-3.17-.82l.61-3.64a17.49,17.49,0,0,0,6,1.15,8.32,8.32,0,0,0,5-1.19,4.29,4.29,0,0,0,1.61-3.7,2.39,2.39,0,0,0-1.32-2.24,9.12,9.12,0,0,0-4.19-.72H515l.54-2.95,7.05-6.73h-10l.61-3.49h15.19Z"/><path class="cls-6" d="M530.86,333.39a30.17,30.17,0,0,1,.75-6.93,18.36,18.36,0,0,1,2.22-5.51,11,11,0,0,1,3.58-3.62,9.1,9.1,0,0,1,4.82-1.29q4.11,0,6,1.83c1.24,1.23,1.85,3.18,1.85,5.87a29.07,29.07,0,0,1-.77,6.93,18.75,18.75,0,0,1-2.23,5.51,11.11,11.11,0,0,1-3.56,3.62,9,9,0,0,1-4.81,1.29q-4.06,0-5.94-1.83C531.48,338,530.86,336.08,530.86,333.39Zm4.43-.36a4.9,4.9,0,0,0,.88,3.27,3.53,3.53,0,0,0,2.82,1,4.09,4.09,0,0,0,2.63-1,8.19,8.19,0,0,0,2.11-2.75,17,17,0,0,0,1.38-4.2,25.61,25.61,0,0,0,.51-5.27,5,5,0,0,0-.87-3.28,3.5,3.5,0,0,0-2.8-1,4.17,4.17,0,0,0-2.67,1,8,8,0,0,0-2.1,2.75,16.88,16.88,0,0,0-1.39,4.19A25.73,25.73,0,0,0,535.29,333Z"/></g><g id="_250" data-name="250"><path class="cls-6" d="M454.35,408.33l13-10.48a18.06,18.06,0,0,0,3.63-3.76,6.34,6.34,0,0,0,1.14-3.53q0-4-5.49-4a32.39,32.39,0,0,0-7.78,1.08l.81-4.68a26.79,26.79,0,0,1,4.25-.88,37.8,37.8,0,0,1,4.3-.24q5,0,7.42,1.73a6.2,6.2,0,0,1,2.39,5.38q0,6.3-6,11.2L462.32,408H475l-.81,4.59H453.59Z"/><path class="cls-6" d="M503.9,386.73h-13l-1.35,7.65,1.28-.07,1.28,0c3.45,0,6.06.63,7.81,1.89a6.38,6.38,0,0,1,2.63,5.54q0,11.43-13.95,11.43a23.71,23.71,0,0,1-4.32-.38,30.69,30.69,0,0,1-3.91-1l.76-4.54a28.7,28.7,0,0,0,3.76,1.06,18.76,18.76,0,0,0,3.71.38q4.18,0,6.15-1.51a5.64,5.64,0,0,0,1.95-4.75q0-3.92-7.33-3.91c-.93,0-1.88,0-2.84,0s-2,.09-3,.18l2.83-16.33h18.36Z"/><path class="cls-6" d="M506.87,403.52a37.44,37.44,0,0,1,.94-8.66,22.53,22.53,0,0,1,2.77-6.89,13.73,13.73,0,0,1,4.48-4.52,11.34,11.34,0,0,1,6-1.62q5.13,0,7.44,2.29t2.32,7.34a36.4,36.4,0,0,1-1,8.66,22.74,22.74,0,0,1-2.79,6.88,13.78,13.78,0,0,1-4.45,4.53,11.25,11.25,0,0,1-6,1.62q-5.08,0-7.42-2.3T506.87,403.52Zm5.53-.45a6.18,6.18,0,0,0,1.1,4.09,4.49,4.49,0,0,0,3.54,1.26,5.13,5.13,0,0,0,3.28-1.23,10.37,10.37,0,0,0,2.64-3.45,21.61,21.61,0,0,0,1.73-5.24,32.48,32.48,0,0,0,.63-6.59,6.27,6.27,0,0,0-1.08-4.1,4.39,4.39,0,0,0-3.51-1.26,5.16,5.16,0,0,0-3.33,1.24,10.33,10.33,0,0,0-2.64,3.44,21.76,21.76,0,0,0-1.73,5.24A32.58,32.58,0,0,0,512.4,403.07Z"/></g></g></g><g id="Display"><rect x="220" y="462" width="160" height="100" rx="8"/><text class="cls-7" transform="translate(281.09 453.42)">km</text></g></g></g></g></svg>