<svg xmlns="http://www.w3.org/2000/svg" viewBox="0 0 600 600"><defs><style>.cls-1{fill:#97a4b0;}.cls-2{fill:#f0f0f0;}.cls-3,.cls-4,.cls-5{fill:#303030;}.cls-3,.cls-4{stroke:#303030;stroke-miterlimit:10;}.cls-3{stroke-width:4px;}.cls-4{stroke-width:2px;}</style></defs><g id="Layer_2" data-name="Layer 2"><g id="Board"><g id="Speedometer"><g id="Gauge"><g id="Main_Gauge" data-name="Main Gauge"><path class="cls-1" d="M600,300a299.06,299.06,0,0,1-88.44,212.69L407.3,408.44a152.56,152.56,0,1,0-215.37-.75L87.67,511.94A299.12,299.12,0,0,1,0,300C0,134.32,134.32,0,300,0S600,134.32,600,300Z"/></g><path class="cls-2" d="M452.57,300A152.57,152.57,0,1,1,300,147.43,152,152,0,0,1,452.57,300Z"/><path class="cls-2" d="M511.56,512.69a300,300,0,0,1-423.89-.75L191.93,407.69a152.53,152.53,0,0,0,215.37.75Z"/><g id="Lines"><line class="cls-3" x1="299" y1="30" x2="299" y2="48"/><line class="cls-4" x1="345.89" y1="34.1" x2="342.76" y2="51.83"/><line class="cls-3" x1="391.35" y1="46.28" x2="385.19" y2="63.2"/><line class="cls-4" x1="434" y1="66.17" x2="425" y2="81.76"/><line class="cls-3" x1="472.55" y1="93.17" x2="460.98" y2="106.96"/><line class="cls-4" x1="505.83" y1="126.45" x2="492.04" y2="138.02"/><line class="cls-3" x1="532.83" y1="165" x2="517.24" y2="174"/><line class="cls-4" x1="552.72" y1="207.65" x2="535.8" y2="213.81"/><line class="cls-3" x1="564.9" y1="253.11" x2="547.17" y2="256.24"/><line class="cls-4" x1="569" y1="300" x2="551" y2="300"/><line class="cls-3" x1="564.9" y1="346.89" x2="547.17" y2="343.76"/><line class="cls-4" x1="552.72" y1="392.35" x2="535.8" y2="386.19"/><line class="cls-3" x1="532.83" y1="435" x2="517.24" y2="426"/><line class="cls-3" x1="66.17" y1="435" x2="81.76" y2="426"/><line class="cls-4" x1="45.28" y1="392.35" x2="62.2" y2="386.19"/><line class="cls-3" x1="33.1" y1="346.89" x2="50.83" y2="343.76"/><line class="cls-4" x1="29" y1="300" x2="47" y2="300"/><line class="cls-3" x1="33.1" y1="253.11" x2="50.83" y2="256.24"/><line class="cls-4" x1="45.28" y1="207.65" x2="62.2" y2="213.81"/><line class="cls-3" x1="65.17" y1="165" x2="80.76" y2="174"/><line class="cls-4" x1="92.17" y1="126.45" x2="105.96" y2="138.02"/><line class="cls-3" x1="125.45" y1="93.17" x2="137.02" y2="106.96"/><line class="cls-4" x1="164" y1="66.17" x2="173" y2="81.76"/><line class="cls-3" x1="206.65" y1="46.28" x2="212.81" y2="63.2"/><line class="cls-4" x1="252.11" y1="34.1" x2="255.24" y2="51.83"/><circle class="cls-3" cx="57.44" cy="412.61" r="1.5"/><circle class="cls-3" cx="41.54" cy="369" r="1.5"/><circle class="cls-3" cx="33.49" cy="323.22" r="1.5"/><circle class="cls-3" cx="33.5" cy="276.71" r="1.5"/><circle class="cls-3" cx="41.58" cy="230.95" r="1.5"/><circle class="cls-3" cx="57.43" cy="187.39" r="1.5"/><circle class="cls-3" cx="80.76" cy="147.02" r="1.5"/><circle class="cls-3" cx="110.52" cy="111.54" r="1.5"/><circle class="cls-3" cx="146.17" cy="81.66" r="1.5"/><circle class="cls-3" cx="186.31" cy="58.49" r="1.5"/><circle class="cls-3" cx="229.95" cy="42.6" r="1.5"/><circle class="cls-3" cx="275.79" cy="34.52" r="1.5"/><circle class="cls-3" cx="322.33" cy="34.52" r="1.5"/><circle class="cls-3" cx="367.9" cy="42.58" r="1.5"/><circle class="cls-3" cx="411.61" cy="58.44" r="1.5"/><circle class="cls-3" cx="451.86" cy="81.7" r="1.5"/><circle class="cls-3" cx="487.41" cy="111.49" r="1.5"/><circle class="cls-3" cx="517.24" cy="147.04" r="1.5"/><circle class="cls-3" cx="540.66" cy="187.39" r="1.5"/><circle class="cls-3" cx="556.41" cy="230.95" r="1.5"/><circle class="cls-3" cx="564.49" cy="276.78" r="1.5"/><circle class="cls-3" cx="564.5" cy="323.29" r="1.5"/><circle class="cls-3" cx="556.42" cy="369.05" r="1.5"/><circle class="cls-3" cx="540.56" cy="412.61" r="1.5"/><path class="cls-5" d="M81.25,395.21l-8.46,3.15.86-4.81,9.67-3.6h4.59L82.6,420.19H76.84Z"/><path class="cls-5" d="M93.76,411.1a37.58,37.58,0,0,1,.95-8.67,22.82,22.82,0,0,1,2.76-6.88A13.73,13.73,0,0,1,102,391a11.34,11.34,0,0,1,6-1.62q5.13,0,7.45,2.29c1.54,1.53,2.32,4,2.32,7.34a36.92,36.92,0,0,1-1,8.66,23.37,23.37,0,0,1-2.79,6.88,13.81,13.81,0,0,1-4.46,4.53,11.19,11.19,0,0,1-6,1.62q-5.09,0-7.43-2.3T93.76,411.1Zm5.54-.45a6.12,6.12,0,0,0,1.1,4.09,4.45,4.45,0,0,0,3.53,1.26,5.12,5.12,0,0,0,3.29-1.24,10.21,10.21,0,0,0,2.63-3.44,21.76,21.76,0,0,0,1.73-5.24,32.48,32.48,0,0,0,.63-6.59,6.27,6.27,0,0,0-1.08-4.1,4.39,4.39,0,0,0-3.51-1.26,5.16,5.16,0,0,0-3.33,1.24,10.08,10.08,0,0,0-2.63,3.44,21.33,21.33,0,0,0-1.73,5.24A32.58,32.58,0,0,0,99.3,410.65Z"/><path class="cls-5" d="M75.26,326.35,68.21,333a7.49,7.49,0,0,1,4.42,1.73,4.93,4.93,0,0,1,1.48,3.75q0,9-11.27,9a19.92,19.92,0,0,1-6.59-1.11l.62-3.64a17.43,17.43,0,0,0,6,1.15,8.36,8.36,0,0,0,5-1.19,4.29,4.29,0,0,0,1.6-3.7,2.39,2.39,0,0,0-1.31-2.24,9.2,9.2,0,0,0-4.2-.72H62.48l.54-3,7.06-6.73H60l.62-3.49H75.84Z"/><path class="cls-5" d="M78,339.85a30.17,30.17,0,0,1,.75-6.93A18.36,18.36,0,0,1,81,327.41a11,11,0,0,1,3.58-3.62,9.1,9.1,0,0,1,4.82-1.29c2.74,0,4.72.61,6,1.83s1.85,3.18,1.85,5.87a29.07,29.07,0,0,1-.77,6.93,18.75,18.75,0,0,1-2.23,5.51,11.11,11.11,0,0,1-3.56,3.62,9,9,0,0,1-4.81,1.29q-4.07,0-5.94-1.83C78.62,344.49,78,342.54,78,339.85Zm4.43-.36a4.9,4.9,0,0,0,.88,3.27,3.53,3.53,0,0,0,2.82,1,4.09,4.09,0,0,0,2.63-1A8.19,8.19,0,0,0,90.87,340a17,17,0,0,0,1.38-4.2,25.61,25.61,0,0,0,.51-5.27,5,5,0,0,0-.87-3.28,3.5,3.5,0,0,0-2.8-1,4.17,4.17,0,0,0-2.67,1,8,8,0,0,0-2.1,2.75,16.88,16.88,0,0,0-1.39,4.19A25.73,25.73,0,0,0,82.43,339.49Z"/><path class="cls-5" d="M75.45,251.07H62.4l-1.35,7.65,1.28-.07,1.28,0q5.17,0,7.81,1.89a6.38,6.38,0,0,1,2.63,5.54q0,11.43-13.95,11.43a22.83,22.83,0,0,1-4.32-.39,29.09,29.09,0,0,1-3.91-1l.76-4.54a26.78,26.78,0,0,0,3.76,1.05,18.06,18.06,0,0,0,3.71.39q4.18,0,6.14-1.51a5.6,5.6,0,0,0,2-4.75q0-3.92-7.33-3.91c-.93,0-1.88,0-2.84,0s-2,.09-3,.18l2.83-16.33H76.21Z"/><path class="cls-5" d="M78.42,267.86a37.59,37.59,0,0,1,.94-8.67,22.57,22.57,0,0,1,2.77-6.88,13.73,13.73,0,0,1,4.48-4.52,11.34,11.34,0,0,1,6-1.62q5.13,0,7.44,2.29t2.32,7.34a36.34,36.34,0,0,1-1,8.66,23,23,0,0,1-2.79,6.89,13.84,13.84,0,0,1-4.45,4.52,11.25,11.25,0,0,1-6,1.62q-5.09,0-7.42-2.3T78.42,267.86Zm5.53-.45a6.18,6.18,0,0,0,1.1,4.09,4.49,4.49,0,0,0,3.54,1.26,5.09,5.09,0,0,0,3.28-1.24,10.22,10.22,0,0,0,2.64-3.44,21.76,21.76,0,0,0,1.73-5.24,32.48,32.48,0,0,0,.63-6.59,6.27,6.27,0,0,0-1.08-4.1,4.39,4.39,0,0,0-3.51-1.26A5.22,5.22,0,0,0,89,252.13a10.33,10.33,0,0,0-2.64,3.44,21.76,21.76,0,0,0-1.73,5.24A32.58,32.58,0,0,0,84,267.41Z"/><path class="cls-5" d="M96.91,183.83,84.23,204.5h-5L91.9,184H80l.61-3.68H97.52Z"/><path class="cls-5" d="M98.13,197.22a29.73,29.73,0,0,1,.76-6.93,18,18,0,0,1,2.21-5.5,11,11,0,0,1,3.58-3.62,9.05,9.05,0,0,1,4.83-1.3c2.73,0,4.72.61,5.95,1.84s1.86,3.18,1.86,5.87a29.18,29.18,0,0,1-.78,6.93,18.31,18.31,0,0,1-2.23,5.5,11,11,0,0,1-3.56,3.62,9,9,0,0,1-4.81,1.3q-4.06,0-5.94-1.84T98.13,197.22Zm4.43-.36a4.91,4.91,0,0,0,.88,3.28,3.59,3.59,0,0,0,2.83,1,4.08,4.08,0,0,0,2.62-1A8.14,8.14,0,0,0,111,197.4a17.15,17.15,0,0,0,1.39-4.19,26.42,26.42,0,0,0,.5-5.27,5,5,0,0,0-.86-3.28,3.54,3.54,0,0,0-2.81-1,4.17,4.17,0,0,0-2.67,1,8.25,8.25,0,0,0-2.1,2.76,17.15,17.15,0,0,0-1.39,4.19A26.42,26.42,0,0,0,102.56,196.86Z"/><path class="cls-5" d="M148.28,121.78a35.46,35.46,0,0,1-1.13,9.34,20.52,20.52,0,0,1-3.24,6.95,14.41,14.41,0,0,1-5.15,4.35,15.33,15.33,0,0,1-6.86,1.5,24.18,24.18,0,0,1-3.94-.31,23.71,23.71,0,0,1-3.67-.9l.77-4.46a25.44,25.44,0,0,0,3.44.86,20.65,20.65,0,0,0,3.62.31,9.12,9.12,0,0,0,6.39-2.34,11.91,11.91,0,0,0,3.42-6.79,9.61,9.61,0,0,1-7.11,2.61q-4.27,0-6.57-2a7,7,0,0,1-2.29-5.56q0-6,3.26-9.38t9.16-3.36q5,0,7.42,2.34T148.28,121.78ZM143,122a4.45,4.45,0,0,0-5-4.86,6.18,6.18,0,0,0-4.72,1.87,7.36,7.36,0,0,0-1.76,5.24q0,4.28,4.77,4.28a6.8,6.8,0,0,0,5-1.71A6.43,6.43,0,0,0,143,122Z"/><path class="cls-5" d="M150.66,134.29a37.49,37.49,0,0,1,1-8.66,22.82,22.82,0,0,1,2.76-6.88,13.77,13.77,0,0,1,4.48-4.53,11.34,11.34,0,0,1,6-1.62q5.13,0,7.45,2.3c1.54,1.53,2.32,4,2.32,7.33a37,37,0,0,1-1,8.67,23.37,23.37,0,0,1-2.79,6.88,13.77,13.77,0,0,1-4.46,4.52,11.19,11.19,0,0,1-6,1.62c-3.4,0-5.87-.76-7.43-2.29S150.66,137.65,150.66,134.29Zm5.54-.45a6.15,6.15,0,0,0,1.1,4.1,4.45,4.45,0,0,0,3.53,1.26,5.14,5.14,0,0,0,3.29-1.24,10.34,10.34,0,0,0,2.63-3.44,21.76,21.76,0,0,0,1.73-5.24,32.58,32.58,0,0,0,.63-6.6,6.24,6.24,0,0,0-1.08-4.09,4.39,4.39,0,0,0-3.51-1.26,5.16,5.16,0,0,0-3.33,1.24,10.08,10.08,0,0,0-2.63,3.44,21.33,21.33,0,0,0-1.73,5.24A31.78,31.78,0,0,0,156.2,133.84Z"/><path class="cls-5" d="M191.88,73.42l-6.77,2.52.68-3.85,7.74-2.88h3.68L193,93.4h-4.61Z"/><path class="cls-5" d="M212.61,73.42l-6.76,2.52.68-3.85,7.74-2.88h3.67L213.69,93.4h-4.6Z"/><path class="cls-5" d="M222.62,86.13a29.67,29.67,0,0,1,.76-6.93,18.2,18.2,0,0,1,2.21-5.51,11.16,11.16,0,0,1,3.58-3.62A9.14,9.14,0,0,1,234,68.78q4.09,0,6,1.83t1.85,5.87a29.6,29.6,0,0,1-.77,6.93,18.38,18.38,0,0,1-2.24,5.51,11.11,11.11,0,0,1-3.56,3.62,9,9,0,0,1-4.81,1.29q-4.06,0-5.94-1.83C223.25,90.77,222.62,88.82,222.62,86.13Zm4.43-.36a5,5,0,0,0,.88,3.28,3.58,3.58,0,0,0,2.83,1,4.07,4.07,0,0,0,2.63-1,8.2,8.2,0,0,0,2.1-2.75,17.15,17.15,0,0,0,1.39-4.19,26.45,26.45,0,0,0,.5-5.28,5,5,0,0,0-.86-3.27,3.52,3.52,0,0,0-2.81-1,4.13,4.13,0,0,0-2.66,1,8.19,8.19,0,0,0-2.11,2.75,17.38,17.38,0,0,0-1.39,4.2A26.35,26.35,0,0,0,227.05,85.77Z"/><path class="cls-5" d="M273.11,58.19l-8.46,3.15.86-4.82,9.67-3.6h4.59l-5.31,30.24H268.7Z"/><path class="cls-5" d="M308.12,57.2l-8.82,8.37a9.32,9.32,0,0,1,5.54,2.16,6.15,6.15,0,0,1,1.84,4.68q0,11.3-14.08,11.29a25,25,0,0,1-4.28-.36,24,24,0,0,1-4-1l.77-4.55a21.9,21.9,0,0,0,7.47,1.44q4.23,0,6.23-1.48a5.39,5.39,0,0,0,2-4.64,3,3,0,0,0-1.64-2.79,11.42,11.42,0,0,0-5.24-.9h-1.8l.67-3.69,8.82-8.41H289.09l.76-4.37h19Z"/><path class="cls-5" d="M311.54,74.07a37.43,37.43,0,0,1,.95-8.66,22.63,22.63,0,0,1,2.77-6.89A13.7,13.7,0,0,1,319.73,54a11.34,11.34,0,0,1,6-1.62c3.42,0,5.91.77,7.45,2.3s2.32,4,2.32,7.33a36.34,36.34,0,0,1-1,8.66,22.91,22.91,0,0,1-2.79,6.89,13.84,13.84,0,0,1-4.45,4.52,11.25,11.25,0,0,1-6,1.62q-5.08,0-7.43-2.29T311.54,74.07Zm5.54-.45a6.21,6.21,0,0,0,1.1,4.1A4.47,4.47,0,0,0,321.71,79,5.17,5.17,0,0,0,325,77.74a10.31,10.31,0,0,0,2.63-3.44,21.27,21.27,0,0,0,1.73-5.25,32.41,32.41,0,0,0,.63-6.59,6.24,6.24,0,0,0-1.08-4.09,4.39,4.39,0,0,0-3.51-1.26,5.2,5.2,0,0,0-3.33,1.23,10.35,10.35,0,0,0-2.63,3.45A21.61,21.61,0,0,0,317.71,67,32.41,32.41,0,0,0,317.08,73.62Z"/><path class="cls-5" d="M361.61,73.42l-6.76,2.52.68-3.85,7.74-2.88h3.67L362.69,93.4h-4.6Z"/><path class="cls-5" d="M390.31,72.7H379.87l-1.08,6.12,1,0,1,0q4.14,0,6.24,1.51a5.11,5.11,0,0,1,2.11,4.43q0,9.15-11.16,9.14a19,19,0,0,1-3.46-.3,26.08,26.08,0,0,1-3.13-.81l.61-3.64a23,23,0,0,0,3,.85,15.11,15.11,0,0,0,3,.3,8.08,8.08,0,0,0,4.91-1.2,4.49,4.49,0,0,0,1.57-3.8q0-3.14-5.87-3.13l-2.27,0c-.76,0-1.57.08-2.41.15l2.27-13.07h14.69Z"/><path class="cls-5" d="M393,86.13a30.17,30.17,0,0,1,.75-6.93A18.21,18.21,0,0,1,396,73.69a11,11,0,0,1,3.58-3.62,9.08,9.08,0,0,1,4.82-1.29c2.74,0,4.72.61,6,1.83s1.85,3.18,1.85,5.87a29.07,29.07,0,0,1-.77,6.93,18.63,18.63,0,0,1-2.23,5.51,11,11,0,0,1-3.57,3.62,9,9,0,0,1-4.8,1.29q-4.06,0-5.94-1.83C393.63,90.77,393,88.82,393,86.13Zm4.42-.36a5,5,0,0,0,.89,3.28,3.56,3.56,0,0,0,2.82,1,4.11,4.11,0,0,0,2.63-1,8.09,8.09,0,0,0,2.11-2.75,17.31,17.31,0,0,0,1.38-4.19,25.71,25.71,0,0,0,.51-5.28,5,5,0,0,0-.87-3.27,3.48,3.48,0,0,0-2.81-1,4.15,4.15,0,0,0-2.66,1,8.19,8.19,0,0,0-2.11,2.75,17.39,17.39,0,0,0-1.38,4.2A25.61,25.61,0,0,0,397.43,85.77Z"/><path class="cls-5" d="M415.89,119l-8.46,3.15.86-4.82,9.67-3.6h4.59l-5.31,30.24h-5.76Z"/><path class="cls-5" d="M452.79,118.09,437,143.92H430.7l15.84-25.65h-14.9l.77-4.59h21.15Z"/><path class="cls-5" d="M454.32,134.83a37.43,37.43,0,0,1,.95-8.66,22.88,22.88,0,0,1,2.76-6.89,13.83,13.83,0,0,1,4.48-4.52,11.34,11.34,0,0,1,6-1.62q5.13,0,7.45,2.3c1.54,1.53,2.32,4,2.32,7.33a37,37,0,0,1-1,8.67,23.48,23.48,0,0,1-2.79,6.88,13.87,13.87,0,0,1-4.46,4.52,11.19,11.19,0,0,1-6,1.62q-5.08,0-7.43-2.29T454.32,134.83Zm5.54-.45a6.15,6.15,0,0,0,1.1,4.1,4.45,4.45,0,0,0,3.53,1.26,5.12,5.12,0,0,0,3.29-1.24,10.21,10.21,0,0,0,2.63-3.44,21.7,21.7,0,0,0,1.73-5.25,32.41,32.41,0,0,0,.63-6.59,6.24,6.24,0,0,0-1.08-4.09,4.39,4.39,0,0,0-3.51-1.26,5.2,5.2,0,0,0-3.33,1.23,10.22,10.22,0,0,0-2.63,3.45,21.19,21.19,0,0,0-1.73,5.24A32.41,32.41,0,0,0,459.86,134.38Z"/><path class="cls-5" d="M473.05,185l-6.77,2.52.68-3.85,7.74-2.88h3.67l-4.24,24.19h-4.61Z"/><path class="cls-5" d="M502.21,187.65a28.43,28.43,0,0,1-.9,7.47,16.46,16.46,0,0,1-2.6,5.56,11.34,11.34,0,0,1-4.12,3.47,12.11,12.11,0,0,1-5.49,1.21,19.11,19.11,0,0,1-6.08-1l.61-3.57a20.87,20.87,0,0,0,2.75.69,16.46,16.46,0,0,0,2.9.25,7.27,7.27,0,0,0,5.11-1.87,9.56,9.56,0,0,0,2.74-5.44,9.07,9.07,0,0,1-10.94.49,5.58,5.58,0,0,1-1.84-4.45c0-3.21.87-5.72,2.61-7.5a9.75,9.75,0,0,1,7.33-2.69q4,0,5.94,1.88A7.16,7.16,0,0,1,502.21,187.65Zm-4.25.14a3.56,3.56,0,0,0-4-3.89,4.94,4.94,0,0,0-3.78,1.5,5.89,5.89,0,0,0-1.4,4.19q0,3.42,3.81,3.42a5.39,5.39,0,0,0,4-1.37A5.1,5.1,0,0,0,498,187.79Z"/><path class="cls-5" d="M504.44,197.66a30.17,30.17,0,0,1,.75-6.93,18.36,18.36,0,0,1,2.22-5.51A10.88,10.88,0,0,1,511,181.6a9.11,9.11,0,0,1,4.82-1.3c2.74,0,4.73.62,6,1.84s1.86,3.18,1.86,5.87a29.18,29.18,0,0,1-.78,6.93,18.48,18.48,0,0,1-2.23,5.51,11.07,11.07,0,0,1-3.56,3.61,9,9,0,0,1-4.81,1.3q-4.06,0-5.94-1.84C505.06,202.3,504.44,200.34,504.44,197.66Zm4.43-.36a4.9,4.9,0,0,0,.88,3.27,3.58,3.58,0,0,0,2.82,1,4.09,4.09,0,0,0,2.63-1,8.19,8.19,0,0,0,2.11-2.75,17,17,0,0,0,1.38-4.2,25.68,25.68,0,0,0,.51-5.27,5,5,0,0,0-.87-3.28,3.5,3.5,0,0,0-2.8-1,4.17,4.17,0,0,0-2.67,1,8.12,8.12,0,0,0-2.1,2.76,17.15,17.15,0,0,0-1.39,4.19A25.73,25.73,0,0,0,508.87,197.3Z"/><path class="cls-5" d="M467.76,273.21l13-10.48a18,18,0,0,0,3.62-3.76,6.3,6.3,0,0,0,1.15-3.53q0-4-5.49-4a32.39,32.39,0,0,0-7.78,1.08l.81-4.68a26.57,26.57,0,0,1,4.25-.88,37.68,37.68,0,0,1,4.3-.24c3.36,0,5.83.57,7.42,1.73a6.21,6.21,0,0,1,2.39,5.38q0,6.3-6,11.2l-9.63,7.88h12.64l-.81,4.59H467Z"/><path class="cls-5" d="M507.77,252.51l-8.46,3.15.85-4.81,9.68-3.6h4.59l-5.31,30.24h-5.76Z"/><path class="cls-5" d="M520.28,268.4a37.59,37.59,0,0,1,.94-8.67,22.57,22.57,0,0,1,2.77-6.88,13.64,13.64,0,0,1,4.48-4.52,11.34,11.34,0,0,1,6-1.62q5.13,0,7.44,2.29t2.32,7.34a36.4,36.4,0,0,1-1,8.66,22.84,22.84,0,0,1-2.79,6.88,13.78,13.78,0,0,1-4.45,4.53,11.25,11.25,0,0,1-6,1.62q-5.09,0-7.42-2.3C521.05,274.2,520.28,271.76,520.28,268.4Zm5.53-.45a6.18,6.18,0,0,0,1.1,4.09,4.49,4.49,0,0,0,3.54,1.26,5.09,5.09,0,0,0,3.28-1.24,10.08,10.08,0,0,0,2.63-3.44,21.32,21.32,0,0,0,1.74-5.24,33.21,33.21,0,0,0,.63-6.59,6.27,6.27,0,0,0-1.08-4.1,4.39,4.39,0,0,0-3.51-1.26,5.22,5.22,0,0,0-3.33,1.24,10.22,10.22,0,0,0-2.64,3.44,21.76,21.76,0,0,0-1.73,5.24A32.58,32.58,0,0,0,525.81,268Z"/><path class="cls-5" d="M488.2,337.47l10.37-8.38a14.45,14.45,0,0,0,2.9-3,5.09,5.09,0,0,0,.92-2.83q0-3.19-4.4-3.2a26.19,26.19,0,0,0-6.22.86l.64-3.74a20.47,20.47,0,0,1,3.41-.7,29.55,29.55,0,0,1,3.43-.2q4,0,5.94,1.39a4.93,4.93,0,0,1,1.91,4.3q0,5-4.82,9l-7.71,6.3h10.12l-.65,3.67H487.59Z"/><path class="cls-5" d="M527.8,320.12l-7,6.7a7.36,7.36,0,0,1,4.42,1.73,4.89,4.89,0,0,1,1.48,3.74q0,9-11.27,9A20.24,20.24,0,0,1,512,341a19.15,19.15,0,0,1-3.17-.83l.62-3.64a17.46,17.46,0,0,0,6,1.16,8.43,8.43,0,0,0,5-1.19,4.31,4.31,0,0,0,1.6-3.71,2.38,2.38,0,0,0-1.31-2.23,9.2,9.2,0,0,0-4.2-.72H515l.54-2.95,7.06-6.74h-10l.62-3.49h15.19Z"/><path class="cls-5" d="M530.86,333.62a29.73,29.73,0,0,1,.76-6.93,18.2,18.2,0,0,1,2.21-5.51,11,11,0,0,1,3.58-3.61,9.05,9.05,0,0,1,4.83-1.3q4.1,0,6,1.84c1.23,1.22,1.85,3.18,1.85,5.86a29.6,29.6,0,0,1-.77,6.93,18.38,18.38,0,0,1-2.24,5.51,11,11,0,0,1-3.56,3.62,9,9,0,0,1-4.81,1.3c-2.71,0-4.69-.62-5.94-1.84S530.86,336.31,530.86,333.62Zm4.43-.36a4.93,4.93,0,0,0,.88,3.28,3.59,3.59,0,0,0,2.83,1,4.13,4.13,0,0,0,2.63-1,8.25,8.25,0,0,0,2.1-2.76,17.15,17.15,0,0,0,1.39-4.19,26.45,26.45,0,0,0,.5-5.28,5,5,0,0,0-.86-3.27,3.52,3.52,0,0,0-2.81-1,4.13,4.13,0,0,0-2.66,1,8.19,8.19,0,0,0-2.11,2.75,17.38,17.38,0,0,0-1.39,4.2A26.42,26.42,0,0,0,535.29,333.26Z"/><path class="cls-5" d="M454.36,408.57l13-10.49a17.72,17.72,0,0,0,3.62-3.76,6.28,6.28,0,0,0,1.15-3.53q0-4-5.49-4a32.46,32.46,0,0,0-7.79,1.08l.81-4.68a25.62,25.62,0,0,1,4.26-.88,35.33,35.33,0,0,1,4.29-.25q5,0,7.43,1.73a6.21,6.21,0,0,1,2.38,5.38q0,6.3-6,11.21l-9.63,7.87H475l-.81,4.59H453.59Z"/><path class="cls-5" d="M503.9,387h-13l-1.35,7.65c.42,0,.85-.06,1.28-.07s.87,0,1.29,0q5.18,0,7.81,1.89a6.38,6.38,0,0,1,2.63,5.53q0,11.43-13.95,11.43a23.71,23.71,0,0,1-4.32-.38,30.82,30.82,0,0,1-3.92-1l.77-4.55a28.56,28.56,0,0,0,3.75,1.06,18.94,18.94,0,0,0,3.72.38c2.79,0,4.83-.5,6.14-1.51a5.58,5.58,0,0,0,2-4.74q0-3.92-7.34-3.92c-.93,0-1.87,0-2.83.05s-2,.09-3,.18l2.84-16.34h18.36Z"/><path class="cls-5" d="M506.87,403.75a37.43,37.43,0,0,1,.95-8.66,22.88,22.88,0,0,1,2.76-6.89,13.83,13.83,0,0,1,4.48-4.52,11.34,11.34,0,0,1,6-1.62q5.13,0,7.45,2.3c1.54,1.53,2.32,4,2.32,7.33a36.86,36.86,0,0,1-1,8.66,23.43,23.43,0,0,1-2.79,6.89,13.87,13.87,0,0,1-4.46,4.52,11.19,11.19,0,0,1-6,1.62q-5.08,0-7.43-2.29T506.87,403.75Zm5.54-.45a6.15,6.15,0,0,0,1.1,4.1,4.45,4.45,0,0,0,3.53,1.26,5.17,5.17,0,0,0,3.29-1.24A10.21,10.21,0,0,0,523,404a21.7,21.7,0,0,0,1.73-5.25,32.41,32.41,0,0,0,.63-6.59,6.24,6.24,0,0,0-1.08-4.09,4.39,4.39,0,0,0-3.51-1.26A5.2,5.2,0,0,0,517.4,388a10.22,10.22,0,0,0-2.63,3.45,21.19,21.19,0,0,0-1.73,5.24A32.41,32.41,0,0,0,512.41,403.3Z"/></g></g><g id="Display"><rect x="220" y="454" width="160" height="100" rx="8"/><path d="M295,445.42h-3.15l-6.18-6.73h0v6.73h-2.24V424.69h2.24v13.14h0l5.88-6.41h2.94L288,438.17Z"/><path d="M317.15,445.42h-2.24v-8a6,6,0,0,0-.72-3.36,2.7,2.7,0,0,0-2.41-1,3,3,0,0,0-2.44,1.31,5,5,0,0,0-1,3.14v8h-2.24v-8.31a5,5,0,0,0-.79-3.1,2.83,2.83,0,0,0-2.39-1,3,3,0,0,0-2.44,1.23,5.18,5.18,0,0,0-1,3.22v8h-2.25v-14h2.25v2.21h.05a5.18,5.18,0,0,1,1.84-1.9,4.81,4.81,0,0,1,2.51-.64,4.06,4.06,0,0,1,2.5.8,4,4,0,0,1,1.46,2.1,5.69,5.69,0,0,1,1.94-2.18,5.06,5.06,0,0,1,2.71-.72,4.2,4.2,0,0,1,3.47,1.42,6.71,6.71,0,0,1,1.15,4.28Z"/></g><path class="cls-5" d="M287.11,204.08h-1.59L281,199.32h0v4.76h-1.12V190H281v8.88h0l4.3-4.55h1.45l-4.57,4.7Z"/><path class="cls-5" d="M302.33,204.08H301.2v-5.76a4.24,4.24,0,0,0-.55-2.49,2,2,0,0,0-1.76-.74,2.39,2.39,0,0,0-1.89,1,3.67,3.67,0,0,0-.79,2.38v5.65H295.1v-5.87a3.81,3.81,0,0,0-.6-2.34,2.1,2.1,0,0,0-1.78-.78,2.3,2.3,0,0,0-1.88.95,3.89,3.89,0,0,0-.74,2.46v5.58H289v-9.73h1.12v1.59h0a3.61,3.61,0,0,1,1.26-1.38,3.26,3.26,0,0,1,1.73-.45,2.83,2.83,0,0,1,1.79.59,3,3,0,0,1,1,1.56,3.8,3.8,0,0,1,1.32-1.59,3.23,3.23,0,0,1,1.86-.56,2.93,2.93,0,0,1,2.41,1,4.68,4.68,0,0,1,.8,3Z"/><path class="cls-5" d="M311.09,190.78,304.7,206.2h-1l6.38-15.42Z"/><path class="cls-5" d="M320.36,204.08h-1.12v-5.75a4.05,4.05,0,0,0-.6-2.45,2.18,2.18,0,0,0-1.87-.79,2.81,2.81,0,0,0-2.09.94,3.64,3.64,0,0,0-.89,2.62v5.43h-1.13V190h1.13v6h0a3.92,3.92,0,0,1,1.39-1.46,3.7,3.7,0,0,1,1.9-.48,3,3,0,0,1,2.43,1,4.54,4.54,0,0,1,.82,2.94Z"/></g></g></g></svg>