<?xml version="1.0" encoding="utf-8"?>
<!-- Generator: Adobe Illustrator 25.2.0, SVG Export Plug-In . SVG Version: 6.00 Build 0)  -->
<svg version="1.1" id="Layer_1" xmlns="http://www.w3.org/2000/svg" xmlns:xlink="http://www.w3.org/1999/xlink" x="0px" y="0px"
	 viewBox="0 0 800 800" style="enable-background:new 0 0 800 800;" xml:space="preserve">
<style type="text/css">
	.st0{fill:none;stroke:#303030;stroke-width:2.5;stroke-miterlimit:10;}
	.st1{fill:none;stroke:#303030;stroke-width:5;stroke-miterlimit:10;}
	.st2{fill:#303030;stroke:#303030;stroke-width:4;stroke-miterlimit:10;}
	.st3{fill:#303030;}
</style>
<g id="Lines_2_">
	<line class="st0" x1="209.9" y1="533.9" x2="190.6" y2="547.7"/>
	<line class="st1" x1="175.8" y1="463.1" x2="153" y2="469.6"/>
	<line class="st0" x1="167.1" y1="385" x2="143.4" y2="383.6"/>
	<line class="st1" x1="184.9" y1="308.4" x2="163" y2="299.2"/>
	<line class="st0" x1="227.1" y1="242.1" x2="209.5" y2="226.1"/>
	<line class="st1" x1="288.9" y1="193.5" x2="277.6" y2="172.6"/>
	<line class="st0" x1="363.3" y1="168.3" x2="359.7" y2="144.8"/>
	<line class="st1" x1="441.9" y1="169.2" x2="446.3" y2="145.8"/>
	<line class="st0" x1="515.8" y1="196.1" x2="527.6" y2="175.6"/>
	<line class="st1" x1="576.5" y1="246.1" x2="594.5" y2="230.6"/>
	<line class="st0" x1="617.1" y1="313.4" x2="639.3" y2="304.8"/>
	<line class="st1" x1="633.1" y1="390.3" x2="656.9" y2="389.6"/>
	<line class="st0" x1="622.7" y1="468.3" x2="645.3" y2="475.4"/>
	<line class="st1" x1="586.9" y1="538.3" x2="605.9" y2="552.5"/>
	<circle class="st2" cx="172.7" cy="508.2" r="2"/>
	<circle class="st2" cx="149.2" cy="427" r="2"/>
	<circle class="st2" cx="154.2" cy="341.9" r="2"/>
	<circle class="st2" cx="187.2" cy="263.4" r="2"/>
	<circle class="st2" cx="244.3" cy="200.3" r="2"/>
	<circle class="st2" cx="319.3" cy="159.7" r="2"/>
	<circle class="st2" cx="403.5" cy="146.3" r="2"/>
	<circle class="st2" cx="487.3" cy="161.6" r="2"/>
	<circle class="st2" cx="561.3" cy="204" r="2"/>
	<circle class="st2" cx="616.9" cy="268.2" r="2"/>
	<circle class="st2" cx="648.1" cy="347.7" r="2"/>
	<circle class="st2" cx="650.1" cy="432.3" r="2"/>
	<circle class="st2" cx="624.7" cy="513.6" r="2"/>
	<g>
		<path class="st3" d="M129.2,454.1l-13.5,5l1.4-7.7l15.5-5.8h7.3l-8.5,48.4h-9.2L129.2,454.1z"/>
	</g>
	<g>
		<path class="st3" d="M113.6,301.3l20.7-16.8c2.6-2.2,4.6-4.2,5.8-6c1.2-1.8,1.8-3.7,1.8-5.7c0-4.3-2.9-6.4-8.8-6.4
			c-3.7,0-7.8,0.6-12.5,1.7l1.3-7.5c2.3-0.7,4.6-1.1,6.8-1.4c2.2-0.3,4.5-0.4,6.9-0.4c5.4,0,9.3,0.9,11.9,2.8
			c2.5,1.8,3.8,4.7,3.8,8.6c0,6.7-3.2,12.7-9.6,17.9l-15.4,12.6h20.2l-1.3,7.3h-32.9L113.6,301.3z"/>
	</g>
	<g>
		<path class="st3" d="M280.9,122.1l-14.1,13.4c3.9,0.4,6.9,1.6,8.9,3.5c2,1.9,3,4.4,3,7.5c0,12-7.5,18.1-22.5,18.1
			c-2.4,0-4.6-0.2-6.8-0.6c-2.2-0.4-4.3-0.9-6.3-1.7l1.2-7.3c4.2,1.5,8.2,2.3,12,2.3c4.5,0,7.8-0.8,10-2.4c2.1-1.6,3.2-4.1,3.2-7.4
			c0-2-0.9-3.5-2.6-4.5c-1.8-1-4.5-1.4-8.4-1.4h-2.9l1.1-5.9l14.1-13.5h-20.1l1.2-7h30.4L280.9,122.1z"/>
	</g>
	<g>
		<path class="st3" d="M458.9,123.3h-23.7l1.2-7.1L464.3,85h9.9l-5.5,31.3h6.3l-1.2,7h-6.3l-1.7,10.1h-8.5L458.9,123.3z
			 M460.1,116.4l3.7-21.3l-19,21.3H460.1z"/>
	</g>
	<g>
		<path class="st3" d="M646.6,189.2h-20.9l-2.2,12.2c0.7,0,1.4-0.1,2.1-0.1c0.7,0,1.4,0,2.1,0c5.5,0,9.7,1,12.5,3
			c2.8,2,4.2,5,4.2,8.9c0,12.2-7.4,18.3-22.3,18.3c-2.4,0-4.8-0.2-6.9-0.6c-2.2-0.4-4.2-0.9-6.3-1.6l1.2-7.3c2,0.7,4,1.3,6,1.7
			c2,0.4,4,0.6,5.9,0.6c4.5,0,7.7-0.8,9.8-2.4c2.1-1.6,3.1-4.1,3.1-7.6c0-4.2-3.9-6.3-11.7-6.3c-1.5,0-3,0-4.5,0.1
			c-1.5,0-3.1,0.1-4.8,0.3l4.5-26.1h29.4L646.6,189.2z"/>
	</g>
	<g>
		<path class="st3" d="M674,392.5c0-5.6,0.6-10.5,1.8-14.9c1.2-4.4,2.9-8.1,5.2-11.1c2.3-3,5-5.3,8.3-6.9c3.2-1.6,6.9-2.4,11-2.4
			c2.2,0,4.2,0.2,6.2,0.5c2,0.3,3.9,0.8,5.9,1.4l-1.2,7.1c-1.8-0.6-3.7-1-5.5-1.4c-1.9-0.3-3.8-0.5-5.7-0.5c-4.1,0-7.5,1.2-10.3,3.7
			c-2.8,2.5-4.6,6.1-5.4,10.9c1.4-1.4,3.1-2.5,5-3.2c1.9-0.7,4-1,6.4-1c4.5,0,8,1.1,10.4,3.2s3.7,5.1,3.7,8.9c0,6.4-1.7,11.4-5.2,15
			c-3.5,3.6-8.3,5.4-14.6,5.4c-5.3,0-9.3-1.2-12-3.7C675.3,400.9,674,397.3,674,392.5z M682.5,392.2c0,2.4,0.7,4.3,2,5.7
			c1.3,1.4,3.3,2.1,6,2.1c3.2,0,5.7-1,7.6-3c1.9-2,2.8-4.8,2.8-8.4c0-4.6-2.5-6.8-7.6-6.8c-3.4,0-6,0.9-7.9,2.7
			C683.5,386.3,682.5,388.9,682.5,392.2z"/>
	</g>
	<g>
		<path class="st3" d="M657.9,541l-25.3,41.3h-10l25.3-41H624l1.2-7.3h33.8L657.9,541z"/>
	</g>
	<g>
		<path class="st3" d="M370.9,263.1l5.3,8.9h-1.3l-4.8-8l-4.6,8h-1.3l5.3-9l-5.3-8.8h1.3l4.7,7.9l4.7-7.9h1.3L370.9,263.1z"/>
		<path class="st3" d="M384.9,255.1v-1h3.7v18h-1.1v-17H384.9z"/>
		<path class="st3" d="M393.8,256.2c0.8-1.6,2.4-2.4,4.7-2.4c2.2,0,3.8,0.8,4.6,2.4c0.8,1.6,1.3,3.8,1.3,6.8c0,3-0.4,5.2-1.3,6.8
			c-0.8,1.6-2.4,2.4-4.6,2.4c-2.3,0-3.8-0.8-4.7-2.4c-0.8-1.6-1.3-3.9-1.3-6.8C392.6,260,393,257.8,393.8,256.2z M402.9,258.7
			c-0.2-1.2-0.7-2.1-1.4-2.8c-0.7-0.7-1.7-1-3-1c-1.3,0-2.3,0.3-3,1c-0.7,0.7-1.2,1.6-1.4,2.8c-0.2,1.2-0.4,2.6-0.4,4.3
			c0,1.7,0.1,3.2,0.4,4.3s0.7,2.1,1.4,2.8c0.7,0.7,1.7,1,3,1c1.3,0,2.3-0.3,3-1c0.7-0.7,1.2-1.6,1.4-2.8c0.2-1.2,0.4-2.6,0.4-4.3
			C403.3,261.3,403.1,259.8,402.9,258.7z"/>
		<path class="st3" d="M409.1,256.2c0.8-1.6,2.4-2.4,4.7-2.4c2.2,0,3.8,0.8,4.6,2.4c0.8,1.6,1.3,3.8,1.3,6.8c0,3-0.4,5.2-1.3,6.8
			c-0.8,1.6-2.4,2.4-4.6,2.4c-2.3,0-3.8-0.8-4.7-2.4c-0.8-1.6-1.3-3.9-1.3-6.8C407.8,260,408.2,257.8,409.1,256.2z M418.2,258.7
			c-0.2-1.2-0.7-2.1-1.4-2.8c-0.7-0.7-1.7-1-3-1c-1.3,0-2.3,0.3-3,1c-0.7,0.7-1.2,1.6-1.4,2.8c-0.2,1.2-0.4,2.6-0.4,4.3
			c0,1.7,0.1,3.2,0.4,4.3c0.2,1.2,0.7,2.1,1.4,2.8c0.7,0.7,1.7,1,3,1c1.3,0,2.3-0.3,3-1c0.7-0.7,1.2-1.6,1.4-2.8
			c0.2-1.2,0.4-2.6,0.4-4.3C418.5,261.3,418.4,259.8,418.2,258.7z"/>
		<path class="st3" d="M424.3,256.2c0.8-1.6,2.4-2.4,4.7-2.4c2.2,0,3.8,0.8,4.6,2.4c0.8,1.6,1.3,3.8,1.3,6.8c0,3-0.4,5.2-1.3,6.8
			c-0.8,1.6-2.4,2.4-4.6,2.4c-2.3,0-3.8-0.8-4.7-2.4c-0.8-1.6-1.3-3.9-1.3-6.8C423.1,260,423.5,257.8,424.3,256.2z M433.4,258.7
			c-0.2-1.2-0.7-2.1-1.4-2.8c-0.7-0.7-1.7-1-3-1c-1.3,0-2.3,0.3-3,1c-0.7,0.7-1.2,1.6-1.4,2.8c-0.2,1.2-0.4,2.6-0.4,4.3
			c0,1.7,0.1,3.2,0.4,4.3c0.2,1.2,0.7,2.1,1.4,2.8c0.7,0.7,1.7,1,3,1c1.3,0,2.3-0.3,3-1c0.7-0.7,1.2-1.6,1.4-2.8
			c0.2-1.2,0.4-2.6,0.4-4.3C433.8,261.3,433.6,259.8,433.4,258.7z"/>
	</g>
</g>
</svg>
