<?xml version="1.0" encoding="utf-8"?>
<!-- Generator: Adobe Illustrator 25.2.0, SVG Export Plug-In . SVG Version: 6.00 Build 0)  -->
<svg version="1.1" id="Layer_1" xmlns="http://www.w3.org/2000/svg" xmlns:xlink="http://www.w3.org/1999/xlink" x="0px" y="0px"
	 viewBox="0 0 800 800" style="enable-background:new 0 0 800 800;" xml:space="preserve">
<style type="text/css">
	.st0{display:none;}
	.st1{display:inline;}
	.st2{fill:#303030;}
	.st3{fill:#303030;stroke:#303030;stroke-width:4;stroke-miterlimit:10;}
	.st4{fill:#303030;stroke:#303030;stroke-width:2;stroke-miterlimit:10;}
</style>
<g id="Speedometer_1_">
	<g id="Display" class="st0">
		<path class="st1" d="M498.7,738.7H301.3c-4.4,0-8-3.6-8-8V613.3c0-4.4,3.6-8,8-8h197.3c4.4,0,8,3.6,8,8v117.3
			C506.7,735.1,503.1,738.7,498.7,738.7z"/>
		<g class="st1">
			<path d="M393.3,593.9h-4.2l-8.2-9h-0.1v9h-3v-27.6h3v17.5h0.1l7.8-8.5h3.9l-8.7,9L393.3,593.9z"/>
			<path d="M422.9,593.9h-3v-10.7c0-2.1-0.3-3.6-1-4.5c-0.6-0.9-1.7-1.4-3.2-1.4c-1.3,0-2.4,0.6-3.3,1.8c-0.9,1.2-1.3,2.6-1.3,4.2
				v10.6h-3v-11.1c0-1.8-0.4-3.2-1.1-4.1s-1.8-1.4-3.2-1.4c-1.3,0-2.4,0.5-3.2,1.6c-0.9,1.1-1.3,2.5-1.3,4.3v10.6h-3v-18.7h3v3h0.1
				c0.7-1.1,1.5-2,2.5-2.5c1-0.6,2.1-0.8,3.3-0.8c1.3,0,2.4,0.4,3.3,1.1c0.9,0.7,1.6,1.6,2,2.8c0.7-1.3,1.6-2.3,2.6-2.9
				c1-0.6,2.2-1,3.6-1c2.1,0,3.6,0.6,4.6,1.9c1,1.3,1.5,3.2,1.5,5.7V593.9z"/>
		</g>
	</g>
	<g>
		<g>
			<path class="st2" d="M382.8,272.1h-2.1l-6-6.3h0v6.3h-1.5v-18.8h1.5v11.9h0l5.7-6.1h1.9l-6.1,6.3L382.8,272.1z"/>
			<path class="st2" d="M403.1,272.1h-1.5v-7.7c0-1.6-0.2-2.7-0.7-3.3s-1.3-1-2.4-1c-1,0-1.8,0.4-2.5,1.3c-0.7,0.9-1.1,1.9-1.1,3.2
				v7.5h-1.5v-7.8c0-1.4-0.3-2.4-0.8-3.1c-0.5-0.7-1.3-1-2.4-1c-1,0-1.8,0.4-2.5,1.3s-1,1.9-1,3.3v7.4h-1.5v-13h1.5v2.1h0
				c0.5-0.8,1-1.4,1.7-1.8c0.7-0.4,1.4-0.6,2.3-0.6c0.9,0,1.7,0.3,2.4,0.8s1.1,1.2,1.4,2.1c0.4-0.9,1-1.6,1.8-2.1
				c0.7-0.5,1.6-0.7,2.5-0.7c1.4,0,2.5,0.4,3.2,1.3c0.7,0.9,1.1,2.2,1.1,4V272.1z"/>
			<path class="st2" d="M414.8,254.4l-8.5,20.6h-1.4l8.5-20.6H414.8z"/>
			<path class="st2" d="M427.2,272.1h-1.5v-7.7c0-1.5-0.3-2.6-0.8-3.3c-0.5-0.7-1.4-1.1-2.5-1.1c-1.1,0-2,0.4-2.8,1.3
				c-0.8,0.8-1.2,2-1.2,3.5v7.2h-1.5v-18.8h1.5v8h0c0.5-0.9,1.1-1.5,1.8-1.9s1.6-0.6,2.5-0.6c1.4,0,2.5,0.4,3.2,1.3
				c0.7,0.9,1.1,2.2,1.1,3.9V272.1z"/>
		</g>
	</g>
	<g id="Lines">
		<line class="st3" x1="398.7" y1="40" x2="398.7" y2="64"/>
		<line class="st4" x1="461.2" y1="45.5" x2="457" y2="69.1"/>
		<line class="st3" x1="521.8" y1="61.7" x2="513.6" y2="84.3"/>
		<line class="st4" x1="578.7" y1="88.2" x2="566.7" y2="109"/>
		<line class="st3" x1="630.1" y1="124.2" x2="614.6" y2="142.6"/>
		<line class="st4" x1="674.4" y1="168.6" x2="656.1" y2="184"/>
		<line class="st3" x1="710.4" y1="220" x2="689.7" y2="232"/>
		<line class="st4" x1="737" y1="276.9" x2="714.4" y2="285.1"/>
		<line class="st3" x1="753.2" y1="337.5" x2="729.6" y2="341.7"/>
		<line class="st4" x1="758.7" y1="400" x2="734.7" y2="400"/>
		<line class="st3" x1="753.2" y1="462.5" x2="729.6" y2="458.3"/>
		<line class="st4" x1="737" y1="523.1" x2="714.4" y2="514.9"/>
		<line class="st3" x1="710.4" y1="580" x2="689.7" y2="568"/>
		<line class="st3" x1="88.2" y1="580" x2="109" y2="568"/>
		<line class="st4" x1="60.4" y1="523.1" x2="82.9" y2="514.9"/>
		<line class="st3" x1="44.1" y1="462.5" x2="67.8" y2="458.3"/>
		<line class="st4" x1="38.7" y1="400" x2="62.7" y2="400"/>
		<line class="st3" x1="44.1" y1="337.5" x2="67.8" y2="341.7"/>
		<line class="st4" x1="60.4" y1="276.9" x2="82.9" y2="285.1"/>
		<line class="st3" x1="86.9" y1="220" x2="107.7" y2="232"/>
		<line class="st4" x1="122.9" y1="168.6" x2="141.3" y2="184"/>
		<line class="st3" x1="167.3" y1="124.2" x2="182.7" y2="142.6"/>
		<line class="st4" x1="218.7" y1="88.2" x2="230.7" y2="109"/>
		<line class="st3" x1="275.5" y1="61.7" x2="283.7" y2="84.3"/>
		<line class="st4" x1="336.2" y1="45.5" x2="340.3" y2="69.1"/>
		<circle class="st3" cx="76.6" cy="550.1" r="2"/>
		<circle class="st3" cx="55.4" cy="492" r="2"/>
		<circle class="st3" cx="44.6" cy="431" r="2"/>
		<circle class="st3" cx="44.7" cy="369" r="2"/>
		<circle class="st3" cx="55.4" cy="307.9" r="2"/>
		<circle class="st3" cx="76.6" cy="249.9" r="2"/>
		<circle class="st3" cx="107.7" cy="196" r="2"/>
		<circle class="st3" cx="147.4" cy="148.7" r="2"/>
		<circle class="st3" cx="194.9" cy="108.9" r="2"/>
		<circle class="st3" cx="248.4" cy="78" r="2"/>
		<circle class="st3" cx="306.6" cy="56.8" r="2"/>
		<circle class="st3" cx="367.7" cy="46" r="2"/>
		<circle class="st3" cx="429.8" cy="46" r="2"/>
		<circle class="st3" cx="490.5" cy="56.8" r="2"/>
		<circle class="st3" cx="548.8" cy="77.9" r="2"/>
		<circle class="st3" cx="602.5" cy="108.9" r="2"/>
		<circle class="st3" cx="649.9" cy="148.6" r="2"/>
		<circle class="st3" cx="689.7" cy="196.1" r="2"/>
		<circle class="st3" cx="720.9" cy="249.9" r="2"/>
		<circle class="st3" cx="741.9" cy="307.9" r="2"/>
		<circle class="st3" cx="752.7" cy="369" r="2"/>
		<circle class="st3" cx="752.7" cy="431" r="2"/>
		<circle class="st3" cx="741.9" cy="492.1" r="2"/>
		<circle class="st3" cx="720.7" cy="550.1" r="2"/>
		<g>
			<path class="st2" d="M108.3,526.9l-11.3,4.2l1.1-6.4l12.9-4.8h6.1l-7.1,40.3h-7.7L108.3,526.9z"/>
			<path class="st2" d="M125,548.1c0-4.2,0.4-8,1.3-11.6c0.8-3.5,2.1-6.6,3.7-9.2c1.6-2.6,3.6-4.6,6-6c2.4-1.4,5-2.2,8-2.2
				c4.6,0,7.9,1,9.9,3.1c2.1,2,3.1,5.3,3.1,9.8c0,4.2-0.4,8-1.3,11.6c-0.9,3.5-2.1,6.6-3.7,9.2c-1.6,2.6-3.6,4.6-5.9,6
				c-2.3,1.4-5,2.2-8,2.2c-4.5,0-7.8-1-9.9-3.1C126.1,555.9,125,552.6,125,548.1z M132.4,547.5c0,2.5,0.5,4.3,1.5,5.5
				c1,1.1,2.5,1.7,4.7,1.7c1.6,0,3-0.5,4.4-1.6c1.4-1.1,2.5-2.6,3.5-4.6c1-2,1.7-4.3,2.3-7c0.6-2.7,0.8-5.6,0.8-8.8
				c0-2.5-0.5-4.3-1.4-5.5c-1-1.1-2.5-1.7-4.7-1.7c-1.6,0-3.1,0.6-4.4,1.7c-1.4,1.1-2.5,2.6-3.5,4.6c-1,2-1.8,4.3-2.3,7
				C132.7,541.4,132.4,544.4,132.4,547.5z"/>
		</g>
		<g>
			<path class="st2" d="M100.3,435.1l-9.4,8.9c2.6,0.3,4.6,1.1,5.9,2.3c1.3,1.2,2,2.9,2,5c0,8-5,12-15,12c-1.6,0-3.1-0.1-4.6-0.4
				c-1.5-0.3-2.9-0.6-4.2-1.1l0.8-4.8c2.8,1,5.5,1.5,8,1.5c3,0,5.2-0.5,6.6-1.6c1.4-1.1,2.1-2.7,2.1-4.9c0-1.3-0.6-2.3-1.8-3
				c-1.2-0.6-3-1-5.6-1h-1.9l0.7-3.9l9.4-9H80l0.8-4.7h20.3L100.3,435.1z"/>
			<path class="st2" d="M104,453.1c0-3.3,0.3-6.4,1-9.2s1.7-5.3,3-7.3c1.3-2.1,2.9-3.7,4.8-4.8c1.9-1.2,4-1.7,6.4-1.7
				c3.6,0,6.3,0.8,7.9,2.4c1.6,1.6,2.5,4.2,2.5,7.8c0,3.3-0.3,6.4-1,9.2c-0.7,2.8-1.7,5.3-3,7.3c-1.3,2.1-2.9,3.7-4.8,4.8
				c-1.9,1.2-4,1.7-6.4,1.7c-3.6,0-6.3-0.8-7.9-2.4C104.8,459.3,104,456.7,104,453.1z M109.9,452.7c0,2,0.4,3.5,1.2,4.4
				c0.8,0.9,2,1.3,3.8,1.3c1.2,0,2.4-0.4,3.5-1.3c1.1-0.9,2-2.1,2.8-3.7c0.8-1.6,1.4-3.4,1.8-5.6c0.4-2.2,0.7-4.5,0.7-7
				c0-2-0.4-3.5-1.2-4.4c-0.8-0.9-2-1.3-3.7-1.3c-1.3,0-2.5,0.4-3.6,1.3c-1.1,0.9-2,2.1-2.8,3.7c-0.8,1.6-1.4,3.4-1.8,5.6
				C110.1,447.8,109.9,450.1,109.9,452.7z"/>
		</g>
		<g>
			<path class="st2" d="M100.6,334.8H83.2L81.4,345c0.6,0,1.1-0.1,1.7-0.1c0.6,0,1.1,0,1.7,0c4.6,0,8.1,0.8,10.4,2.5
				c2.3,1.7,3.5,4.1,3.5,7.4c0,10.2-6.2,15.2-18.6,15.2c-2,0-4-0.2-5.8-0.5c-1.8-0.3-3.5-0.8-5.2-1.4l1-6.1c1.7,0.6,3.4,1.1,5,1.4
				c1.7,0.3,3.3,0.5,4.9,0.5c3.7,0,6.5-0.7,8.2-2c1.7-1.3,2.6-3.5,2.6-6.3c0-3.5-3.3-5.2-9.8-5.2c-1.2,0-2.5,0-3.8,0.1
				c-1.3,0-2.6,0.1-4,0.2l3.8-21.8h24.5L100.6,334.8z"/>
			<path class="st2" d="M104.6,357.1c0-4.2,0.4-8,1.3-11.6s2.1-6.6,3.7-9.2c1.6-2.6,3.6-4.6,6-6c2.4-1.4,5-2.2,8-2.2
				c4.6,0,7.9,1,9.9,3.1c2.1,2,3.1,5.3,3.1,9.8c0,4.2-0.4,8-1.3,11.6c-0.9,3.5-2.1,6.6-3.7,9.2c-1.6,2.6-3.6,4.6-5.9,6s-5,2.2-8,2.2
				c-4.5,0-7.8-1-9.9-3.1C105.6,364.9,104.6,361.6,104.6,357.1z M111.9,356.5c0,2.5,0.5,4.3,1.5,5.5c1,1.1,2.5,1.7,4.7,1.7
				c1.6,0,3-0.5,4.4-1.6c1.4-1.1,2.5-2.6,3.5-4.6c1-2,1.7-4.3,2.3-7c0.6-2.7,0.8-5.6,0.8-8.8c0-2.5-0.5-4.3-1.4-5.5
				c-1-1.1-2.5-1.7-4.7-1.7c-1.6,0-3.1,0.6-4.4,1.7c-1.4,1.1-2.5,2.6-3.5,4.6c-1,2-1.8,4.3-2.3,7
				C112.2,350.5,111.9,353.4,111.9,356.5z"/>
		</g>
		<g>
			<path class="st2" d="M129.2,245.1l-16.9,27.6h-6.7l16.9-27.4h-15.9l0.8-4.9H130L129.2,245.1z"/>
			<path class="st2" d="M130.8,263c0-3.3,0.3-6.4,1-9.2s1.7-5.3,3-7.3c1.3-2.1,2.9-3.7,4.8-4.8s4-1.7,6.4-1.7c3.6,0,6.3,0.8,7.9,2.4
				c1.6,1.6,2.5,4.2,2.5,7.8c0,3.3-0.3,6.4-1,9.2c-0.7,2.8-1.7,5.3-3,7.3c-1.3,2.1-2.9,3.7-4.8,4.8c-1.9,1.2-4,1.7-6.4,1.7
				c-3.6,0-6.3-0.8-7.9-2.4C131.7,269.2,130.8,266.6,130.8,263z M136.7,262.5c0,2,0.4,3.5,1.2,4.4c0.8,0.9,2,1.3,3.8,1.3
				c1.2,0,2.4-0.4,3.5-1.3c1.1-0.9,2-2.1,2.8-3.7c0.8-1.6,1.4-3.4,1.8-5.6c0.4-2.2,0.7-4.5,0.7-7c0-2-0.4-3.5-1.2-4.4
				c-0.8-0.9-2-1.3-3.7-1.3c-1.3,0-2.5,0.4-3.6,1.3c-1.1,0.9-2,2.1-2.8,3.7c-0.8,1.6-1.4,3.4-1.8,5.6
				C137,257.6,136.7,260,136.7,262.5z"/>
		</g>
		<g>
			<path class="st2" d="M197.7,162.4c0,4.6-0.5,8.8-1.5,12.4c-1,3.7-2.4,6.8-4.3,9.3s-4.2,4.5-6.9,5.8c-2.7,1.3-5.8,2-9.1,2
				c-1.8,0-3.6-0.1-5.2-0.4c-1.7-0.3-3.3-0.7-4.9-1.2l1-5.9c1.5,0.5,3,0.9,4.6,1.1c1.6,0.3,3.2,0.4,4.8,0.4c3.4,0,6.2-1,8.5-3.1
				c2.3-2.1,3.8-5.1,4.6-9.1c-2.3,2.3-5.5,3.5-9.5,3.5c-3.8,0-6.7-0.9-8.8-2.7c-2-1.8-3.1-4.2-3.1-7.4c0-5.4,1.4-9.5,4.4-12.5
				c2.9-3,7-4.5,12.2-4.5c4.4,0,7.7,1,9.9,3.1C196.6,155.3,197.7,158.4,197.7,162.4z M190.6,162.6c0-2-0.5-3.6-1.6-4.7
				c-1.1-1.2-2.8-1.7-5-1.7c-2.6,0-4.7,0.8-6.3,2.5c-1.6,1.7-2.3,4-2.3,7c0,3.8,2.1,5.7,6.4,5.7c2.8,0,5-0.8,6.6-2.3
				C189.8,167.5,190.6,165.4,190.6,162.6z"/>
			<path class="st2" d="M200.9,179.1c0-4.2,0.4-8,1.3-11.6c0.8-3.5,2.1-6.6,3.7-9.2c1.6-2.6,3.6-4.6,6-6c2.4-1.4,5-2.2,8-2.2
				c4.6,0,7.9,1,9.9,3.1c2.1,2,3.1,5.3,3.1,9.8c0,4.2-0.4,8-1.3,11.6c-0.9,3.5-2.1,6.6-3.7,9.2c-1.6,2.6-3.6,4.6-5.9,6
				c-2.3,1.4-5,2.2-8,2.2c-4.5,0-7.8-1-9.9-3.1C201.9,186.8,200.9,183.5,200.9,179.1z M208.3,178.5c0,2.5,0.5,4.3,1.5,5.5
				c1,1.1,2.5,1.7,4.7,1.7c1.6,0,3-0.5,4.4-1.6c1.4-1.1,2.5-2.6,3.5-4.6c1-2,1.7-4.3,2.3-7c0.6-2.7,0.8-5.6,0.8-8.8
				c0-2.5-0.5-4.3-1.4-5.5c-1-1.1-2.5-1.7-4.7-1.7c-1.6,0-3.1,0.6-4.4,1.7c-1.4,1.1-2.5,2.6-3.5,4.6c-1,2-1.8,4.3-2.3,7
				C208.5,172.4,208.3,175.3,208.3,178.5z"/>
		</g>
		<g>
			<path class="st2" d="M255.8,97.9l-9,3.4l0.9-5.1l10.3-3.8h4.9l-5.7,32.3h-6.1L255.8,97.9z"/>
			<path class="st2" d="M283.5,97.9l-9,3.4l0.9-5.1l10.3-3.8h4.9l-5.7,32.3h-6.1L283.5,97.9z"/>
			<path class="st2" d="M296.8,114.8c0-3.3,0.3-6.4,1-9.2s1.7-5.3,3-7.3c1.3-2.1,2.9-3.7,4.8-4.8s4-1.7,6.4-1.7
				c3.6,0,6.3,0.8,7.9,2.4c1.6,1.6,2.5,4.2,2.5,7.8c0,3.3-0.3,6.4-1,9.2c-0.7,2.8-1.7,5.3-3,7.3c-1.3,2.1-2.9,3.7-4.8,4.8
				c-1.9,1.2-4,1.7-6.4,1.7c-3.6,0-6.3-0.8-7.9-2.4C297.7,121,296.8,118.4,296.8,114.8z M302.7,114.4c0,2,0.4,3.5,1.2,4.4
				c0.8,0.9,2,1.3,3.8,1.3c1.2,0,2.4-0.4,3.5-1.3c1.1-0.9,2-2.1,2.8-3.7c0.8-1.6,1.4-3.4,1.8-5.6c0.4-2.2,0.7-4.5,0.7-7
				c0-2-0.4-3.5-1.2-4.4c-0.8-0.9-2-1.3-3.7-1.3c-1.3,0-2.5,0.4-3.6,1.3c-1.1,0.9-2,2.1-2.8,3.7c-0.8,1.6-1.4,3.4-1.8,5.6
				S302.7,111.8,302.7,114.4z"/>
		</g>
		<g>
			<path class="st2" d="M364.2,77.6l-11.3,4.2l1.1-6.4l12.9-4.8h6.1l-7.1,40.3h-7.7L364.2,77.6z"/>
			<path class="st2" d="M410.8,76.3l-11.8,11.2c3.3,0.4,5.7,1.3,7.4,2.9c1.6,1.6,2.5,3.6,2.5,6.2c0,10-6.3,15.1-18.8,15.1
				c-2,0-3.9-0.2-5.7-0.5c-1.8-0.3-3.6-0.8-5.3-1.4l1-6.1c3.5,1.3,6.8,1.9,10,1.9c3.8,0,6.5-0.7,8.3-2c1.8-1.3,2.7-3.4,2.7-6.2
				c0-1.7-0.7-2.9-2.2-3.7c-1.5-0.8-3.8-1.2-7-1.2h-2.4l0.9-4.9l11.8-11.2h-16.7l1-5.8h25.3L410.8,76.3z"/>
			<path class="st2" d="M415.4,98.8c0-4.2,0.4-8,1.3-11.6c0.8-3.5,2.1-6.6,3.7-9.2c1.6-2.6,3.6-4.6,6-6c2.4-1.4,5-2.2,8-2.2
				c4.6,0,7.9,1,9.9,3.1c2.1,2,3.1,5.3,3.1,9.8c0,4.2-0.4,8-1.3,11.6c-0.9,3.5-2.1,6.6-3.7,9.2c-1.6,2.6-3.6,4.6-5.9,6
				c-2.3,1.4-5,2.2-8,2.2c-4.5,0-7.8-1-9.9-3.1C416.4,106.5,415.4,103.2,415.4,98.8z M422.8,98.2c0,2.5,0.5,4.3,1.5,5.5
				c1,1.1,2.5,1.7,4.7,1.7c1.6,0,3-0.5,4.4-1.6c1.4-1.1,2.5-2.6,3.5-4.6c1-2,1.7-4.3,2.3-7c0.6-2.7,0.8-5.6,0.8-8.8
				c0-2.5-0.5-4.3-1.4-5.5c-1-1.1-2.5-1.7-4.7-1.7c-1.6,0-3.1,0.6-4.4,1.7c-1.4,1.1-2.5,2.6-3.5,4.6c-1,2-1.8,4.3-2.3,7
				C423,92.1,422.8,95,422.8,98.2z"/>
		</g>
		<g>
			<path class="st2" d="M482.2,97.9l-9,3.4l0.9-5.1l10.3-3.8h4.9l-5.7,32.3h-6.1L482.2,97.9z"/>
			<path class="st2" d="M520.4,96.9h-13.9l-1.4,8.2c0.4,0,0.9-0.1,1.4-0.1c0.5,0,0.9,0,1.4,0c3.7,0,6.5,0.7,8.3,2
				c1.9,1.3,2.8,3.3,2.8,5.9c0,8.1-5,12.2-14.9,12.2c-1.6,0-3.2-0.1-4.6-0.4s-2.8-0.6-4.2-1.1l0.8-4.8c1.3,0.5,2.7,0.9,4,1.1
				c1.3,0.3,2.6,0.4,4,0.4c3,0,5.2-0.5,6.6-1.6c1.4-1.1,2.1-2.8,2.1-5.1c0-2.8-2.6-4.2-7.8-4.2c-1,0-2,0-3,0c-1,0-2.1,0.1-3.2,0.2
				l3-17.4h19.6L520.4,96.9z"/>
			<path class="st2" d="M524,114.8c0-3.3,0.3-6.4,1-9.2s1.7-5.3,3-7.3c1.3-2.1,2.9-3.7,4.8-4.8c1.9-1.2,4-1.7,6.4-1.7
				c3.6,0,6.3,0.8,7.9,2.4c1.6,1.6,2.5,4.2,2.5,7.8c0,3.3-0.3,6.4-1,9.2c-0.7,2.8-1.7,5.3-3,7.3c-1.3,2.1-2.9,3.7-4.8,4.8
				c-1.9,1.2-4,1.7-6.4,1.7c-3.6,0-6.3-0.8-7.9-2.4C524.8,121,524,118.4,524,114.8z M529.9,114.4c0,2,0.4,3.5,1.2,4.4
				c0.8,0.9,2,1.3,3.8,1.3c1.2,0,2.4-0.4,3.5-1.3c1.1-0.9,2-2.1,2.8-3.7c0.8-1.6,1.4-3.4,1.8-5.6c0.4-2.2,0.7-4.5,0.7-7
				c0-2-0.4-3.5-1.2-4.4c-0.8-0.9-2-1.3-3.7-1.3c-1.3,0-2.5,0.4-3.6,1.3c-1.1,0.9-2,2.1-2.8,3.7c-0.8,1.6-1.4,3.4-1.8,5.6
				C530.1,109.5,529.9,111.8,529.9,114.4z"/>
		</g>
		<g>
			<path class="st2" d="M554.5,158.6l-11.3,4.2l1.1-6.4l12.9-4.8h6.1l-7.1,40.3h-7.7L554.5,158.6z"/>
			<path class="st2" d="M603.7,157.5l-21.1,34.4h-8.3l21.1-34.2h-19.9l1-6.1h28.2L603.7,157.5z"/>
			<path class="st2" d="M605.8,179.8c0-4.2,0.4-8,1.3-11.6c0.8-3.5,2.1-6.6,3.7-9.2c1.6-2.6,3.6-4.6,6-6c2.4-1.4,5-2.2,8-2.2
				c4.6,0,7.9,1,9.9,3.1c2.1,2,3.1,5.3,3.1,9.8c0,4.2-0.4,8-1.3,11.6c-0.9,3.5-2.1,6.6-3.7,9.2c-1.6,2.6-3.6,4.6-5.9,6s-5,2.2-8,2.2
				c-4.5,0-7.8-1-9.9-3.1C606.8,187.5,605.8,184.3,605.8,179.8z M613.1,179.2c0,2.5,0.5,4.3,1.5,5.5c1,1.1,2.5,1.7,4.7,1.7
				c1.6,0,3-0.5,4.4-1.6c1.4-1.1,2.5-2.6,3.5-4.6c1-2,1.7-4.3,2.3-7c0.6-2.7,0.8-5.6,0.8-8.8c0-2.5-0.5-4.3-1.4-5.5
				c-1-1.1-2.5-1.7-4.7-1.7c-1.6,0-3.1,0.6-4.4,1.7c-1.4,1.1-2.5,2.6-3.5,4.6c-1,2-1.8,4.3-2.3,7C613.4,173.1,613.1,176,613.1,179.2
				z"/>
		</g>
		<g>
			<path class="st2" d="M630.7,246.6l-9,3.4l0.9-5.1l10.3-3.8h4.9l-5.7,32.3H626L630.7,246.6z"/>
			<path class="st2" d="M669.6,250.2c0,3.7-0.4,7-1.2,10c-0.8,2.9-2,5.4-3.5,7.4s-3.3,3.6-5.5,4.6c-2.2,1.1-4.6,1.6-7.3,1.6
				c-1.4,0-2.8-0.1-4.2-0.3c-1.4-0.2-2.7-0.5-3.9-1l0.8-4.8c1.2,0.4,2.4,0.7,3.7,0.9c1.3,0.2,2.6,0.3,3.9,0.3c2.7,0,5-0.8,6.8-2.5
				c1.8-1.7,3-4.1,3.6-7.2c-1.9,1.9-4.4,2.8-7.6,2.8c-3,0-5.4-0.7-7-2.1c-1.6-1.4-2.4-3.4-2.4-5.9c0-4.3,1.2-7.6,3.5-10
				c2.3-2.4,5.6-3.6,9.8-3.6c3.5,0,6.2,0.8,7.9,2.5C668.7,244.6,669.6,247,669.6,250.2z M663.9,250.4c0-1.6-0.4-2.9-1.3-3.8
				c-0.9-0.9-2.2-1.4-4-1.4c-2.1,0-3.8,0.7-5,2c-1.2,1.3-1.9,3.2-1.9,5.6c0,3,1.7,4.6,5.1,4.6c2.3,0,4-0.6,5.3-1.8
				C663.3,254.3,663.9,252.6,663.9,250.4z"/>
			<path class="st2" d="M672.6,263.5c0-3.3,0.3-6.4,1-9.2c0.7-2.8,1.7-5.3,3-7.3c1.3-2.1,2.9-3.7,4.8-4.8c1.9-1.2,4-1.7,6.4-1.7
				c3.6,0,6.3,0.8,7.9,2.4c1.6,1.6,2.5,4.2,2.5,7.8c0,3.3-0.3,6.4-1,9.2c-0.7,2.8-1.7,5.3-3,7.3c-1.3,2.1-2.9,3.7-4.8,4.8
				c-1.9,1.2-4,1.7-6.4,1.7c-3.6,0-6.3-0.8-7.9-2.4C673.4,269.7,672.6,267.1,672.6,263.5z M678.5,263.1c0,2,0.4,3.5,1.2,4.4
				c0.8,0.9,2,1.3,3.8,1.3c1.2,0,2.4-0.4,3.5-1.3c1.1-0.9,2-2.1,2.8-3.7c0.8-1.6,1.4-3.4,1.8-5.6c0.4-2.2,0.7-4.5,0.7-7
				c0-2-0.4-3.5-1.2-4.4c-0.8-0.9-2-1.3-3.7-1.3c-1.3,0-2.5,0.4-3.6,1.3c-1.1,0.9-2,2.1-2.8,3.7c-0.8,1.6-1.4,3.4-1.8,5.6
				C678.7,258.2,678.5,260.5,678.5,263.1z"/>
		</g>
		<g>
			<path class="st2" d="M623.7,364.3l17.3-14c2.2-1.8,3.8-3.5,4.8-5c1-1.5,1.5-3.1,1.5-4.7c0-3.6-2.4-5.3-7.3-5.3
				c-3.1,0-6.5,0.5-10.4,1.4l1.1-6.2c1.9-0.6,3.8-1,5.7-1.2c1.9-0.2,3.8-0.3,5.7-0.3c4.5,0,7.8,0.8,9.9,2.3c2.1,1.5,3.2,3.9,3.2,7.2
				c0,5.6-2.7,10.6-8,14.9l-12.8,10.5h16.9l-1.1,6.1h-27.4L623.7,364.3z"/>
			<path class="st2" d="M677,336.7l-11.3,4.2l1.1-6.4l12.9-4.8h6.1l-7.1,40.3h-7.7L677,336.7z"/>
			<path class="st2" d="M693.7,357.9c0-4.2,0.4-8,1.3-11.5c0.8-3.5,2.1-6.6,3.7-9.2c1.6-2.6,3.6-4.6,6-6c2.4-1.4,5-2.2,8-2.2
				c4.6,0,7.9,1,9.9,3.1c2.1,2,3.1,5.3,3.1,9.8c0,4.2-0.4,8-1.3,11.5c-0.9,3.5-2.1,6.6-3.7,9.2c-1.6,2.6-3.6,4.6-5.9,6s-5,2.2-8,2.2
				c-4.5,0-7.8-1-9.9-3.1C694.7,365.6,693.7,362.3,693.7,357.9z M701.1,357.3c0,2.5,0.5,4.3,1.5,5.5c1,1.1,2.5,1.7,4.7,1.7
				c1.6,0,3-0.5,4.4-1.6c1.4-1.1,2.5-2.6,3.5-4.6c1-2,1.7-4.3,2.3-7c0.6-2.7,0.8-5.6,0.8-8.8c0-2.5-0.5-4.3-1.4-5.5
				c-1-1.1-2.5-1.7-4.7-1.7c-1.6,0-3.1,0.6-4.4,1.6c-1.4,1.1-2.5,2.6-3.5,4.6c-1,2-1.8,4.3-2.3,7
				C701.4,351.2,701.1,354.1,701.1,357.3z"/>
		</g>
		<g>
			<path class="st2" d="M650.9,450l13.8-11.2c1.8-1.4,3-2.8,3.9-4c0.8-1.2,1.2-2.5,1.2-3.8c0-2.8-2-4.3-5.9-4.3
				c-2.5,0-5.2,0.4-8.3,1.2l0.9-5c1.5-0.4,3-0.8,4.5-0.9s3-0.3,4.6-0.3c3.6,0,6.2,0.6,7.9,1.8c1.7,1.2,2.5,3.1,2.5,5.7
				c0,4.5-2.1,8.5-6.4,12l-10.3,8.4h13.5l-0.9,4.9h-21.9L650.9,450z"/>
			<path class="st2" d="M703.7,426.8l-9.4,8.9c2.6,0.3,4.6,1.1,5.9,2.3c1.3,1.2,2,2.9,2,5c0,8-5,12-15,12c-1.6,0-3.1-0.1-4.6-0.4
				c-1.5-0.3-2.9-0.6-4.2-1.1l0.8-4.8c2.8,1,5.5,1.5,8,1.5c3,0,5.2-0.5,6.6-1.6c1.4-1.1,2.1-2.7,2.1-4.9c0-1.3-0.6-2.3-1.8-3
				c-1.2-0.6-3-1-5.6-1h-1.9l0.7-3.9l9.4-9h-13.4l0.8-4.7h20.3L703.7,426.8z"/>
			<path class="st2" d="M707.8,444.8c0-3.3,0.3-6.4,1-9.2s1.7-5.3,3-7.3c1.3-2.1,2.9-3.7,4.8-4.8c1.9-1.2,4-1.7,6.4-1.7
				c3.6,0,6.3,0.8,7.9,2.4c1.6,1.6,2.5,4.2,2.5,7.8c0,3.3-0.3,6.4-1,9.2c-0.7,2.8-1.7,5.3-3,7.3c-1.3,2.1-2.9,3.7-4.8,4.8
				c-1.9,1.2-4,1.7-6.4,1.7c-3.6,0-6.3-0.8-7.9-2.4C708.6,451,707.8,448.4,707.8,444.8z M713.7,444.3c0,2,0.4,3.5,1.2,4.4
				s2,1.3,3.8,1.3c1.2,0,2.4-0.4,3.5-1.3c1.1-0.9,2-2.1,2.8-3.7c0.8-1.6,1.4-3.4,1.8-5.6c0.4-2.2,0.7-4.5,0.7-7c0-2-0.4-3.5-1.2-4.4
				c-0.8-0.9-2-1.3-3.7-1.3c-1.3,0-2.5,0.4-3.6,1.3c-1.1,0.9-2,2.1-2.8,3.7c-0.8,1.6-1.4,3.4-1.8,5.6
				C713.9,439.5,713.7,441.8,713.7,444.3z"/>
		</g>
		<g>
			<path class="st2" d="M605.8,544.8l17.3-14c2.2-1.8,3.8-3.5,4.8-5c1-1.5,1.5-3.1,1.5-4.7c0-3.6-2.4-5.3-7.3-5.3
				c-3.1,0-6.5,0.5-10.4,1.4l1.1-6.2c1.9-0.6,3.8-1,5.7-1.2c1.9-0.2,3.8-0.3,5.7-0.3c4.5,0,7.8,0.8,9.9,2.3c2.1,1.5,3.2,3.9,3.2,7.2
				c0,5.6-2.7,10.6-8,14.9l-12.8,10.5h16.9l-1.1,6.1h-27.4L605.8,544.8z"/>
			<path class="st2" d="M671.9,516h-17.4l-1.8,10.2c0.6,0,1.1-0.1,1.7-0.1c0.6,0,1.1,0,1.7,0c4.6,0,8.1,0.8,10.4,2.5
				c2.3,1.7,3.5,4.1,3.5,7.4c0,10.2-6.2,15.2-18.6,15.2c-2,0-4-0.2-5.8-0.5c-1.8-0.3-3.5-0.8-5.2-1.4l1-6.1c1.7,0.6,3.4,1.1,5,1.4
				c1.7,0.3,3.3,0.5,4.9,0.5c3.7,0,6.5-0.7,8.2-2c1.7-1.3,2.6-3.5,2.6-6.3c0-3.5-3.3-5.2-9.8-5.2c-1.2,0-2.5,0-3.8,0.1
				c-1.3,0-2.6,0.1-4,0.2l3.8-21.8h24.5L671.9,516z"/>
			<path class="st2" d="M675.8,538.3c0-4.2,0.4-8,1.3-11.5c0.8-3.5,2.1-6.6,3.7-9.2c1.6-2.6,3.6-4.6,6-6c2.4-1.4,5-2.2,8-2.2
				c4.6,0,7.9,1,9.9,3.1c2.1,2,3.1,5.3,3.1,9.8c0,4.2-0.4,8-1.3,11.6c-0.9,3.5-2.1,6.6-3.7,9.2c-1.6,2.6-3.6,4.6-5.9,6
				c-2.3,1.4-5,2.2-8,2.2c-4.5,0-7.8-1-9.9-3.1C676.9,546.1,675.8,542.8,675.8,538.3z M683.2,537.7c0,2.5,0.5,4.3,1.5,5.5
				c1,1.1,2.5,1.7,4.7,1.7c1.6,0,3-0.5,4.4-1.6c1.4-1.1,2.5-2.6,3.5-4.6c1-2,1.7-4.3,2.3-7c0.6-2.7,0.8-5.6,0.8-8.8
				c0-2.5-0.5-4.3-1.4-5.5c-1-1.1-2.5-1.7-4.7-1.7c-1.6,0-3.1,0.6-4.4,1.7c-1.4,1.1-2.5,2.6-3.5,4.6c-1,2-1.8,4.3-2.3,7
				C683.5,531.6,683.2,534.6,683.2,537.7z"/>
		</g>
	</g>
</g>
</svg>
