<?xml version="1.0" encoding="utf-8"?>
<!-- Generator: Adobe Illustrator 25.2.0, SVG Export Plug-In . SVG Version: 6.00 Build 0)  -->
<svg version="1.1" id="Layer_1" xmlns="http://www.w3.org/2000/svg" xmlns:xlink="http://www.w3.org/1999/xlink" x="0px" y="0px"
	 viewBox="0 0 800 800" style="enable-background:new 0 0 800 800;" xml:space="preserve">
<style type="text/css">
	.st0{fill:#E90000;}
</style>
<g>
	<path class="st0" d="M129.2,454.1l-13.5,5l1.4-7.7l15.5-5.8h7.3l-8.5,48.4h-9.2L129.2,454.1z"/>
</g>
<g>
	<path class="st0" d="M113.6,301.3l20.7-16.8c2.6-2.2,4.6-4.2,5.8-6s1.8-3.7,1.8-5.7c0-4.3-2.9-6.4-8.8-6.4c-3.7,0-7.8,0.6-12.5,1.7
		l1.3-7.5c2.3-0.7,4.6-1.1,6.8-1.4c2.2-0.3,4.5-0.4,6.9-0.4c5.4,0,9.3,0.9,11.9,2.8c2.5,1.8,3.8,4.7,3.8,8.6
		c0,6.7-3.2,12.7-9.6,17.9l-15.4,12.6h20.2l-1.3,7.3h-32.9L113.6,301.3z"/>
</g>
<g>
	<path class="st0" d="M280.9,122.1l-14.1,13.4c3.9,0.4,6.9,1.6,8.9,3.5c2,1.9,3,4.4,3,7.5c0,12-7.5,18.1-22.5,18.1
		c-2.4,0-4.6-0.2-6.8-0.6c-2.2-0.4-4.3-0.9-6.3-1.7l1.2-7.3c4.2,1.5,8.2,2.3,12,2.3c4.5,0,7.8-0.8,10-2.4c2.1-1.6,3.2-4.1,3.2-7.4
		c0-2-0.9-3.5-2.6-4.5c-1.8-1-4.5-1.4-8.4-1.4h-2.9l1.1-5.9l14.1-13.5h-20.1l1.2-7h30.4L280.9,122.1z"/>
</g>
<g>
	<path class="st0" d="M458.9,123.3h-23.7l1.2-7.1L464.3,85h9.9l-5.5,31.3h6.3l-1.2,7h-6.3l-1.7,10.1h-8.5L458.9,123.3z M460.1,116.4
		l3.7-21.3l-19,21.3H460.1z"/>
</g>
<g>
	<path class="st0" d="M646.6,189.2h-20.9l-2.2,12.2c0.7,0,1.4-0.1,2.1-0.1c0.7,0,1.4,0,2.1,0c5.5,0,9.7,1,12.5,3
		c2.8,2,4.2,5,4.2,8.9c0,12.2-7.4,18.3-22.3,18.3c-2.4,0-4.8-0.2-6.9-0.6c-2.2-0.4-4.2-0.9-6.3-1.6l1.2-7.3c2,0.7,4,1.3,6,1.7
		c2,0.4,4,0.6,5.9,0.6c4.5,0,7.7-0.8,9.8-2.4c2.1-1.6,3.1-4.1,3.1-7.6c0-4.2-3.9-6.3-11.7-6.3c-1.5,0-3,0-4.5,0.1
		c-1.5,0-3.1,0.1-4.8,0.3l4.5-26.1h29.4L646.6,189.2z"/>
</g>
<g>
	<path class="st0" d="M674,392.5c0-5.6,0.6-10.5,1.8-14.9c1.2-4.4,2.9-8.1,5.2-11.1c2.3-3,5-5.3,8.3-6.9c3.2-1.6,6.9-2.4,11-2.4
		c2.2,0,4.2,0.2,6.2,0.5c2,0.3,3.9,0.8,5.9,1.4l-1.2,7.1c-1.8-0.6-3.7-1-5.5-1.4c-1.9-0.3-3.8-0.5-5.7-0.5c-4.1,0-7.5,1.2-10.3,3.7
		c-2.8,2.5-4.6,6.1-5.4,10.9c1.4-1.4,3.1-2.5,5-3.2c1.9-0.7,4-1,6.4-1c4.5,0,8,1.1,10.4,3.2c2.4,2.1,3.7,5.1,3.7,8.9
		c0,6.4-1.7,11.4-5.2,15c-3.5,3.6-8.3,5.4-14.6,5.4c-5.3,0-9.3-1.2-12-3.7C675.3,401,674,397.3,674,392.5z M682.5,392.2
		c0,2.4,0.7,4.3,2,5.7c1.3,1.4,3.3,2.1,6,2.1c3.2,0,5.7-1,7.6-3c1.9-2,2.8-4.8,2.8-8.4c0-4.6-2.5-6.8-7.6-6.8c-3.4,0-6,0.9-7.9,2.7
		C683.5,386.3,682.5,388.9,682.5,392.2z"/>
</g>
<g>
	<path class="st0" d="M657.9,541l-25.3,41.3h-10l25.3-41H624l1.2-7.3h33.8L657.9,541z"/>
</g>
</svg>
