<?xml version="1.0" encoding="utf-8"?>
<!-- Generator: Adobe Illustrator 25.2.0, SVG Export Plug-In . SVG Version: 6.00 Build 0)  -->
<svg version="1.1" id="Layer_1" xmlns="http://www.w3.org/2000/svg" xmlns:xlink="http://www.w3.org/1999/xlink" x="0px" y="0px"
	 viewBox="0 0 800 800" style="enable-background:new 0 0 800 800;" xml:space="preserve">
<style type="text/css">
	.st0{fill:#97A4B0;}
	.st1{fill:#F0F0F0;}
</style>
<g id="Gauge_3_">
	<g id="Main_Gauge_3_">
		<path class="st0" d="M800,400c0,110.8-45.1,211.1-117.9,283.6l-139-139c37.3-36.9,60.4-88,60.4-144.6
			c0-112.3-91.1-203.4-203.4-203.4c-112.4,0-203.4,91.1-203.4,203.4c0,56.1,22.7,106.8,59.3,143.6l-139,139
			C44.7,610.2,0,510.3,0,400C0,179.1,179.1,0,400,0S800,179.1,800,400z"/>
	</g>
	<g>
		<path class="st1" d="M543.1,544.6c37.3-36.9,60.4-88,60.4-144.6c0-112.3-91.1-203.4-203.4-203.4c-112.4,0-203.4,91.1-203.4,203.4
			c0,56.1,22.7,106.8,59.3,143.6l-139,139C189.3,755.1,289.4,800,400,800c110.1,0,209.7-44.5,282.1-116.4L543.1,544.6z"/>
	</g>
</g>
</svg>
