<svg xmlns="http://www.w3.org/2000/svg" viewBox="0 0 600 600"><defs><style>.cls-1{fill:#97a4b0;}.cls-2{fill:#f0f0f0;}.cls-3,.cls-4{fill:none;}.cls-3,.cls-4,.cls-5{stroke:#303030;stroke-miterlimit:10;}.cls-3{stroke-width:2.5px;}.cls-4{stroke-width:5px;}.cls-5,.cls-6{fill:#303030;}.cls-5{stroke-width:4px;}</style></defs><g id="Layer_2" data-name="Layer 2"><g id="Board"><g id="Tahometer"><g id="Gauge"><g id="Main_Gauge" data-name="Main Gauge"><path class="cls-1" d="M600,300a299.06,299.06,0,0,1-88.44,212.69L407.3,408.44a152.56,152.56,0,1,0-215.37-.75L87.67,511.94A299.12,299.12,0,0,1,0,300C0,134.32,134.32,0,300,0S600,134.32,600,300Z"/></g><path class="cls-2" d="M452.57,300A152.57,152.57,0,1,1,300,147.43,152,152,0,0,1,452.57,300Z"/><path class="cls-2" d="M511.56,512.69a300,300,0,0,1-423.89-.75L191.93,407.69a152.53,152.53,0,0,0,215.37.75Z"/></g><g id="Lines"><line class="cls-3" x1="157.46" y1="400.46" x2="142.93" y2="410.75"/><line class="cls-4" x1="131.85" y1="347.35" x2="114.73" y2="352.23"/><line class="cls-3" x1="125.34" y1="288.76" x2="107.56" y2="287.67"/><line class="cls-4" x1="138.66" y1="231.32" x2="122.25" y2="224.39"/><line class="cls-3" x1="170.3" y1="181.57" x2="157.13" y2="169.59"/><line class="cls-4" x1="216.67" y1="145.16" x2="208.23" y2="129.48"/><line class="cls-3" x1="272.5" y1="126.21" x2="269.75" y2="108.62"/><line class="cls-4" x1="331.45" y1="126.89" x2="334.7" y2="109.38"/><line class="cls-3" x1="386.84" y1="147.11" x2="395.71" y2="131.67"/><line class="cls-4" x1="432.36" y1="184.58" x2="445.86" y2="172.96"/><line class="cls-3" x1="462.85" y1="235.04" x2="479.44" y2="228.57"/><line class="cls-4" x1="474.85" y1="292.76" x2="492.65" y2="292.17"/><line class="cls-3" x1="467" y1="351.19" x2="483.98" y2="356.55"/><line class="cls-4" x1="440.18" y1="403.7" x2="454.42" y2="414.39"/><circle class="cls-5" cx="129.5" cy="381.19" r="1.5"/><circle class="cls-5" cx="111.91" cy="320.25" r="1.5"/><circle class="cls-5" cx="115.66" cy="256.41" r="1.5"/><circle class="cls-5" cx="140.41" cy="197.51" r="1.5"/><circle class="cls-5" cx="183.19" cy="150.25" r="1.5"/><circle class="cls-5" cx="239.45" cy="119.78" r="1.5"/><circle class="cls-5" cx="302.64" cy="109.74" r="1.5"/><circle class="cls-5" cx="365.44" cy="121.21" r="1.5"/><circle class="cls-5" cx="420.98" cy="153" r="1.5"/><circle class="cls-5" cx="462.65" cy="201.19" r="1.5"/><circle class="cls-5" cx="486.09" cy="260.74" r="1.5"/><circle class="cls-5" cx="487.6" cy="324.22" r="1.5"/><circle class="cls-5" cx="468.5" cy="385.23" r="1.5"/><path class="cls-6" d="M96.87,340.56l-10.15,3.78,1-5.77,11.61-4.32h5.5l-6.37,36.28H91.58Z"/><path class="cls-6" d="M85.19,226l15.56-12.59a21.44,21.44,0,0,0,4.34-4.5,7.6,7.6,0,0,0,1.38-4.24q0-4.81-6.59-4.81a38.66,38.66,0,0,0-9.34,1.3l1-5.62a32,32,0,0,1,5.11-1,43.33,43.33,0,0,1,5.15-.3q6,0,8.91,2.08t2.86,6.45q0,7.56-7.23,13.45l-11.56,9.45h15.18l-1,5.51H84.28Z"/><path class="cls-6" d="M210.69,91.56l-10.59,10c3,.33,5.17,1.19,6.65,2.59a7.43,7.43,0,0,1,2.21,5.62q0,13.56-16.9,13.56a29.59,29.59,0,0,1-5.13-.44,27.8,27.8,0,0,1-4.75-1.24l.91-5.45a26.33,26.33,0,0,0,9,1.72c3.38,0,5.88-.59,7.48-1.78s2.4-3,2.4-5.56a3.58,3.58,0,0,0-2-3.35c-1.32-.72-3.41-1.08-6.29-1.08h-2.16l.81-4.43,10.58-10.09H187.85l.91-5.24h22.79Z"/><path class="cls-6" d="M344.14,92.51H326.38l.91-5.3,20.9-23.43h7.4l-4.16,23.49h4.7l-.92,5.24h-4.7l-1.29,7.56h-6.37Zm.92-5.24,2.81-16-14.26,16Z"/><path class="cls-6" d="M485,141.91H469.29l-1.62,9.18,1.54-.08,1.54,0c4.14,0,7.27.75,9.37,2.26a7.67,7.67,0,0,1,3.16,6.65q0,13.71-16.74,13.71a27.58,27.58,0,0,1-5.18-.46,35.55,35.55,0,0,1-4.7-1.21l.92-5.46a32.09,32.09,0,0,0,4.51,1.27,21.76,21.76,0,0,0,4.45.46q5,0,7.37-1.81t2.35-5.69q0-4.71-8.8-4.7c-1.12,0-2.25,0-3.4.05s-2.36.11-3.62.22l3.4-19.6h22Z"/><path class="cls-6" d="M505.48,294.37a42.49,42.49,0,0,1,1.35-11.2,24.38,24.38,0,0,1,3.91-8.35,17.52,17.52,0,0,1,6.21-5.21,18.38,18.38,0,0,1,8.24-1.81,28.22,28.22,0,0,1,4.67.38,30.37,30.37,0,0,1,4.4,1.08l-.92,5.35a31.59,31.59,0,0,0-4.16-1,24.19,24.19,0,0,0-4.26-.38,11.07,11.07,0,0,0-7.7,2.81,13.91,13.91,0,0,0-4.07,8.15,9.93,9.93,0,0,1,3.72-2.37,14.08,14.08,0,0,1,4.81-.76q5.07,0,7.83,2.41a8.39,8.39,0,0,1,2.75,6.67q0,7.23-3.89,11.25t-11,4q-6,0-9-2.81T505.48,294.37Zm6.42-.22a5.34,5.34,0,0,0,6,5.84,7.44,7.44,0,0,0,5.67-2.24,8.88,8.88,0,0,0,2.1-6.3c0-3.42-1.9-5.13-5.72-5.13a8.14,8.14,0,0,0-5.94,2.06A7.7,7.7,0,0,0,511.9,294.15Z"/><path class="cls-6" d="M493.41,405.73l-19,31h-7.5l19-30.78H468l.92-5.51h25.38Z"/><path class="cls-6" d="M278.17,197.36l4,6.67h-1l-3.59-6-3.44,6h-.95l3.95-6.73-4-6.61h1l3.55,5.93,3.5-5.93h1Z"/><path class="cls-6" d="M288.66,191.3v-.78h2.81V204h-.86V191.3Z"/><path class="cls-6" d="M295.36,192.15a4.31,4.31,0,0,1,7,0,11,11,0,0,1,1,5.06,11.19,11.19,0,0,1-1,5.12,4.28,4.28,0,0,1-7,0,11.19,11.19,0,0,1-.95-5.12A11,11,0,0,1,295.36,192.15Zm6.82,1.85a3.94,3.94,0,0,0-1.07-2.08,3.67,3.67,0,0,0-4.5,0,3.94,3.94,0,0,0-1.07,2.08,16.16,16.16,0,0,0-.27,3.21,16.63,16.63,0,0,0,.27,3.26,4,4,0,0,0,1.07,2.1,3.64,3.64,0,0,0,4.5,0,4,4,0,0,0,1.07-2.1,16.63,16.63,0,0,0,.27-3.26A16.16,16.16,0,0,0,302.18,194Z"/><path class="cls-6" d="M306.8,192.15a3.61,3.61,0,0,1,3.5-1.78,3.57,3.57,0,0,1,3.47,1.78,10.8,10.8,0,0,1,1,5.06,11,11,0,0,1-1,5.12,3.56,3.56,0,0,1-3.47,1.8,3.6,3.6,0,0,1-3.5-1.8,11.19,11.19,0,0,1-.95-5.12A11,11,0,0,1,306.8,192.15Zm6.81,1.85a3.87,3.87,0,0,0-1.06-2.08,3.07,3.07,0,0,0-2.25-.77,3,3,0,0,0-2.25.77A3.94,3.94,0,0,0,307,194a16.16,16.16,0,0,0-.27,3.21,16.63,16.63,0,0,0,.27,3.26,4,4,0,0,0,1.07,2.1,3,3,0,0,0,2.25.78,3.08,3.08,0,0,0,2.25-.78,4,4,0,0,0,1.06-2.1,15.82,15.82,0,0,0,.28-3.26A15.37,15.37,0,0,0,313.61,194Z"/><path class="cls-6" d="M318.24,192.15a4.3,4.3,0,0,1,7,0,10.82,10.82,0,0,1,1,5.06,11.06,11.06,0,0,1-1,5.12,4.27,4.27,0,0,1-7,0,11.19,11.19,0,0,1-.95-5.12A11,11,0,0,1,318.24,192.15Zm6.81,1.85a3.93,3.93,0,0,0-1.06-2.08,3.69,3.69,0,0,0-4.51,0,3.93,3.93,0,0,0-1.06,2.08,16.08,16.08,0,0,0-.28,3.21,16.55,16.55,0,0,0,.28,3.26,4,4,0,0,0,1.06,2.1,3.65,3.65,0,0,0,4.51,0,4,4,0,0,0,1.06-2.1,16.55,16.55,0,0,0,.28-3.26A16.08,16.08,0,0,0,325.05,194Z"/></g></g></g></g></svg>