<svg width="40" height="29" viewBox="0 0 40 29" fill="none" xmlns="http://www.w3.org/2000/svg">
<g clip-path="url(#clip0_39_960)">
<path d="M16 0V11.4688C14.25 12.7383 13 14.6758 13 17C13 20.8555 16.1445 24 20 24C23.8555 24 27 20.8555 27 17C27 14.6758 25.75 12.7383 24 11.4688V10H26V8H24V6H26V4H24V2H26V0H16ZM18 2H22V12.4062L22.5 12.6875C23.9961 13.5547 25 15.1484 25 17C25 19.7734 22.7734 22 20 22C17.2266 22 15 19.7734 15 17C15 15.1484 16.0039 13.5547 17.5 12.6875L18 12.4062V2ZM19 4V14.1875C17.8398 14.6016 17 15.6992 17 17C17 18.6562 18.3438 20 20 20C21.6562 20 23 18.6562 23 17C23 15.6992 22.1602 14.6016 21 14.1875V4H19Z" fill="white"/>
<path d="M9.85138 23.7016C11.6348 23.7016 12.1444 22.9032 13.1635 22.3952C12.9936 21.8871 12.9087 21.3064 12.9087 20.7984C12.9087 20.6532 12.9087 20.5806 12.9087 20.4355C11.9745 20.871 11.465 21.5968 9.85138 21.5968C7.38853 21.5968 7.38854 20 4.92569 20C2.46285 20 2.46285 21.5968 0 21.5968V23.7016C2.46285 23.7016 2.46285 22.1048 4.92569 22.1048C7.38854 22.1774 7.38853 23.7016 9.85138 23.7016ZM30.1486 26.8952C27.6858 26.8952 27.6858 25.2984 25.2229 25.2984C22.845 25.2984 22.7601 26.75 19.9575 26.8952C17.155 26.8226 17.0701 25.2984 14.6921 25.2984C12.2293 25.2984 12.2293 26.8952 9.76645 26.8952C7.30361 26.8952 7.30361 25.2984 4.84076 25.2984C3.65181 25.2984 2.9724 25.6613 2.37792 26.0968V28.2016C2.9724 27.8387 3.65181 27.4032 4.84076 27.4032C7.30361 27.4032 7.30361 29 9.76645 29C12.2293 29 12.2293 27.4032 14.6921 27.4032C16.9851 27.4032 17.155 28.7823 19.6178 28.9274C19.7028 28.9274 19.7877 28.9274 19.9575 28.9274C20.0425 28.9274 20.1274 28.9274 20.2972 28.9274C22.7601 28.7097 22.9299 27.4032 25.2229 27.4032C27.6858 27.4032 27.6858 29 30.1486 29C32.6115 29 32.6115 27.4032 35.0743 27.4032C36.3482 27.4032 36.9427 27.7661 37.5372 28.2016V26.0968C36.9427 25.7339 36.3482 25.2984 35.0743 25.2984C32.6115 25.2984 32.6115 26.8952 30.1486 26.8952ZM35.0743 20C32.6115 20 32.6115 21.5968 30.1486 21.5968C28.535 21.5968 27.9406 20.871 27.0913 20.4355C27.0913 20.5806 27.0913 20.6532 27.0913 20.7984C27.0913 21.379 27.0064 21.8871 26.8365 22.3952C27.9406 22.8306 28.3652 23.7016 30.1486 23.7016C32.6115 23.7016 32.6115 22.1048 35.0743 22.1048C37.5372 22.1048 37.5372 23.7016 40 23.7016V21.5968C37.5372 21.5968 37.5372 20 35.0743 20Z" fill="white"/>
</g>
<defs>
<clipPath id="clip0_39_960">
<rect width="40" height="29" fill="white"/>
</clipPath>
</defs>
</svg>
