<svg width="29" height="29" viewBox="0 0 29 29" fill="none" xmlns="http://www.w3.org/2000/svg">
<g clip-path="url(#clip0_39_979)">
<path d="M3.95455 0C1.78675 0 0 1.78675 0 3.95455V29H18.4545V19.7727H21.0909V25.0455C21.0909 27.2132 22.8777 29 25.0455 29C27.2132 29 29 27.2132 29 25.0455V11.6165C29 10.5661 28.5881 9.59801 27.8466 8.85653L21.6264 2.63636L19.7727 4.49006L23.5213 8.23864C22.1053 8.84109 21.0909 10.2365 21.0909 11.8636C21.0909 14.0314 22.8777 15.8182 25.0455 15.8182C25.5089 15.8182 25.9466 15.7203 26.3636 15.571V25.0455C26.3636 25.7921 25.7921 26.3636 25.0455 26.3636C24.2988 26.3636 23.7273 25.7921 23.7273 25.0455V19.7727C23.7273 18.331 22.5327 17.1364 21.0909 17.1364H18.4545V3.95455C18.4545 1.78675 16.6678 0 14.5 0H3.95455ZM3.95455 2.63636H14.5C15.2466 2.63636 15.8182 3.20792 15.8182 3.95455V9.22727H2.63636V3.95455C2.63636 3.20792 3.20792 2.63636 3.95455 2.63636ZM25.0455 10.5455C25.7869 10.5455 26.3636 11.1222 26.3636 11.8636C26.3636 12.6051 25.7869 13.1818 25.0455 13.1818C24.304 13.1818 23.7273 12.6051 23.7273 11.8636C23.7273 11.1222 24.304 10.5455 25.0455 10.5455ZM2.63636 11.8636H15.8182V26.3636H2.63636V11.8636Z" fill="white"/>
</g>
<defs>
<clipPath id="clip0_39_979">
<rect width="29" height="29" fill="white"/>
</clipPath>
</defs>
</svg>
