<svg width="32" height="20" viewBox="0 0 32 20" fill="none" xmlns="http://www.w3.org/2000/svg">
<path d="M6.59375 0C5.25781 0 4.02344 0.667969 3.28125 1.78125L0.5 5.9375C0.171875 6.42969 0 7 0 7.59375V14.2188C0 15.1328 0.613281 15.9336 1.5 16.1562L4.09375 16.8125C4.46875 18.6289 6.07812 20 8 20C9.85156 20 11.3984 18.7188 11.8438 17H21.1562C21.6016 18.7188 23.1484 20 25 20C26.8516 20 28.3984 18.7188 28.8438 17H30C31.0938 17 32 16.0938 32 15V11.3438C32 9.51172 30.7461 7.91016 28.9688 7.46875L23.5625 6.09375L19.6562 1.4375C18.8945 0.527344 17.7812 0 16.5938 0H6.59375ZM6.59375 2H11V6H2.875L4.9375 2.90625V2.875C5.30859 2.31641 5.92188 2 6.59375 2ZM13 2H16.5938C17.1875 2 17.7461 2.26172 18.125 2.71875L20.875 6H13V2ZM2 8H22.875L28.5 9.40625C29.3945 9.62891 30 10.4219 30 11.3438V15H28.8438C28.3984 13.2812 26.8516 12 25 12C23.1484 12 21.6016 13.2812 21.1562 15H11.8438C11.3984 13.2812 9.85156 12 8 12C6.22656 12 4.73828 13.1719 4.21875 14.7812L2 14.2188V8ZM8 14C9.11719 14 10 14.8828 10 16C10 17.1172 9.11719 18 8 18C6.88281 18 6 17.1172 6 16C6 14.8828 6.88281 14 8 14ZM25 14C26.1172 14 27 14.8828 27 16C27 17.1172 26.1172 18 25 18C23.8828 18 23 17.1172 23 16C23 14.8828 23.8828 14 25 14Z" fill="white"/>
</svg>
