<svg width="28" height="29" viewBox="0 0 28 29" fill="none" xmlns="http://www.w3.org/2000/svg">
<g clip-path="url(#clip0_37_957)">
<path d="M20.75 0.875C17.0366 0.875 14 3.91162 14 7.625C14 8.74121 14.4307 9.87939 14.9844 11.1406C15.5381 12.4019 16.2368 13.7378 16.9531 14.9727C18.3857 17.4424 19.8359 19.5078 19.8359 19.5078L20.75 20.8438L21.6641 19.5078C21.6641 19.5078 23.1143 17.4424 24.5469 14.9727C25.2632 13.7378 25.9619 12.4019 26.5156 11.1406C27.0693 9.87939 27.5 8.74121 27.5 7.625C27.5 3.91162 24.4634 0.875 20.75 0.875ZM9.46484 3.05469L0.5 6.88672V28.4727L9.53516 24.5703L18.5352 27.9453L27.5 24.1133V14.3047C26.7837 15.6802 25.9883 16.9985 25.25 18.1719V22.6367L19.625 25.0273V23.1992L17.9727 20.8086C17.7969 20.5537 17.5903 20.2505 17.375 19.9297V25.1328L10.625 22.6016V5.86719L11.8555 6.32422C11.9653 5.56397 12.1631 4.83008 12.4531 4.14453L9.46484 3.05469ZM20.75 3.125C23.2461 3.125 25.25 5.12891 25.25 7.625C25.25 8.06006 24.9775 9.08838 24.4766 10.2266C23.9756 11.3647 23.2681 12.6567 22.5781 13.8477C21.6597 15.4297 21.2642 15.9922 20.75 16.7656C20.2358 15.9922 19.8403 15.4297 18.9219 13.8477C18.2319 12.6567 17.5244 11.3647 17.0234 10.2266C16.5225 9.08838 16.25 8.06006 16.25 7.625C16.25 5.12891 18.2539 3.125 20.75 3.125ZM8.375 5.9375V22.6367L2.75 25.0273V8.36328L8.375 5.9375ZM20.75 5.9375C19.8184 5.9375 19.0625 6.69336 19.0625 7.625C19.0625 8.55664 19.8184 9.3125 20.75 9.3125C21.6816 9.3125 22.4375 8.55664 22.4375 7.625C22.4375 6.69336 21.6816 5.9375 20.75 5.9375Z" fill="white"/>
</g>
<defs>
<clipPath id="clip0_37_957">
<rect width="28" height="29" fill="white"/>
</clipPath>
</defs>
</svg>
